# 3ds Max Wavefront OBJ Exporter v0.97b - (c)2007 guruware
# File Created: 18.05.2020 21:16:26

mtllib flowerBomb.mtl

#
# object body
#

v  52.9714 2.0706 0.3237
v  52.8725 1.0855 0.4140
v  53.2235 1.0855 0.3023
v  53.2132 2.0706 0.2373
v  53.2235 1.0855 -0.2823
v  52.8725 1.0855 -0.4024
v  52.9714 2.0706 -0.3141
v  53.2132 2.0706 -0.2149
v  53.6414 0.0519 0.1527
v  53.0076 0.0519 0.1469
v  53.0076 0.0519 -0.4691
v  53.5117 0.0519 -0.2978
v  53.3003 2.0554 0.0138
v  53.3316 1.0404 0.0134
v  52.5382 1.0855 -0.2823
v  52.4281 1.0855 0.0134
v  52.6800 2.0706 0.0138
v  52.7687 2.0706 -0.2149
v  52.4711 0.0519 -0.2978
v  52.3390 0.0519 0.1527
v  52.5382 1.0855 0.3023
v  52.7687 2.0706 0.2373
v  53.0076 0.0519 0.7631
v  53.5117 0.0519 0.5930
v  52.4711 0.0519 0.5930
# 25 vertices

vn 0.0235 0.1308 0.9911
vn -0.0265 0.3217 0.9465
vn 0.4091 0.2947 0.8636
vn 0.4299 0.0769 0.8996
vn 0.4464 0.1096 -0.8881
vn -0.0316 0.1072 -0.9937
vn 0.0249 0.1339 -0.9907
vn 0.4664 0.0737 -0.8815
vn 0.0000 -1.0000 -0.0000
vn 0.0000 -1.0000 0.0000
vn 0.9995 0.0310 0.0002
vn 0.9808 0.1946 -0.0132
vn 0.9627 0.1534 -0.2229
vn 0.9680 0.0302 -0.2493
vn -0.9646 0.1230 -0.2334
vn -0.9890 0.1468 -0.0151
vn -0.9720 0.2350 0.0002
vn -0.9412 0.2277 -0.2495
vn -0.4972 0.1681 -0.8512
vn -0.4558 0.0822 -0.8863
vn -0.4197 0.2798 0.8635
vn -0.4602 0.1643 0.8725
vn 0.9527 0.2085 0.2212
vn 0.9665 0.0298 0.2547
vn -0.9577 0.1656 0.2355
vn -0.9399 0.2271 0.2550
vn 0.0130 0.9999 0.0000
vn -0.3946 0.3418 0.8529
vn 0.0298 0.4150 0.9093
vn 0.3876 0.4159 0.8227
vn 0.9288 0.3138 0.1972
vn 0.9567 0.2902 0.0235
vn 0.9482 0.2466 -0.2001
vn 0.0341 0.0956 -0.9948
vn 0.4342 0.1309 -0.8913
vn -0.4312 0.0348 -0.9016
vn -0.9739 0.0513 -0.2210
vn -0.9949 0.0978 0.0256
vn -0.9657 0.1310 0.2242
# 39 vertex normals

vt 0.5110 0.2500 0.0000
vt 0.5110 0.1254 0.0000
vt 0.6250 0.1254 0.0000
vt 0.6250 0.2500 0.0000
vt 0.6250 0.6246 0.0000
vt 0.5110 0.6246 0.0000
vt 0.5110 0.5000 0.0000
vt 0.6250 0.5000 0.0000
vt 0.6250 0.8764 0.0000
vt 0.5110 0.8764 0.0000
vt 0.5110 0.7500 0.0000
vt 0.6250 0.7500 0.0000
vt 0.7486 0.2500 0.0000
vt 0.7486 0.1254 0.0000
vt 0.8750 0.1254 0.0000
vt 0.8750 0.2500 0.0000
vt 0.1250 0.1254 0.0000
vt 0.2514 0.1254 0.0000
vt 0.2514 0.2500 0.0000
vt 0.1250 0.2500 0.0000
vt 0.3750 0.7500 0.0000
vt 0.3750 0.8764 0.0000
vt 0.3750 0.5000 0.0000
vt 0.3750 0.6246 0.0000
vt 0.3750 0.1254 0.0000
vt 0.3750 0.2500 0.0000
vt 0.5110 1.0000 0.0000
vt 0.6250 1.0000 0.0000
vt 0.3750 1.0000 0.0000
vt 0.3750 0.0000 0.0000
vt 0.5110 0.0000 0.0000
vt 0.6250 0.0000 0.0000
vt 0.7486 0.0000 0.0000
vt 0.8750 0.0000 0.0000
vt 0.1250 0.0000 0.0000
vt 0.2514 0.0000 0.0000
# 36 texture coords

o body
g body
usemtl lambert1
f 1/1/1 2/2/2 3/3/3 
f 3/3/3 4/4/4 1/1/1 
f 5/5/5 6/6/6 7/7/7 
f 7/7/7 8/8/8 5/5/5 
f 9/9/9 10/10/9 11/11/10 
f 11/11/10 12/12/10 9/9/9 
f 13/13/11 14/14/12 5/15/13 
f 5/15/13 8/16/14 13/13/11 
f 15/17/15 16/18/16 17/19/17 
f 17/19/17 18/20/18 15/17/15 
f 19/21/9 11/11/10 10/10/9 
f 10/10/9 20/22/9 19/21/9 
f 18/23/19 7/7/7 6/6/6 
f 6/6/6 15/24/20 18/23/19 
f 21/25/21 2/2/2 1/1/1 
f 1/1/1 22/26/22 21/25/21 
f 3/3/23 14/14/12 13/13/11 
f 13/13/11 4/4/24 3/3/23 
f 23/27/9 10/10/9 9/9/9 
f 9/9/9 24/28/9 23/27/9 
f 20/22/9 10/10/9 23/27/9 
f 23/27/9 25/29/9 20/22/9 
f 17/19/17 16/18/16 21/25/25 
f 21/25/25 22/26/26 17/19/17 
f 1/1/27 4/4/27 13/13/27 
f 1/1/27 13/13/27 8/8/27 
f 1/1/27 8/8/27 7/7/27 
f 1/1/27 7/7/27 18/20/27 
f 1/1/27 18/20/27 17/19/27 
f 1/1/27 17/19/27 22/26/27 
f 25/30/28 23/31/29 2/2/2 
f 2/2/2 21/25/21 25/30/28 
f 3/3/3 2/2/2 23/31/29 
f 23/31/29 24/32/30 3/3/3 
f 24/32/31 9/33/32 14/14/12 
f 14/14/12 3/3/23 24/32/31 
f 5/15/13 14/14/12 9/33/32 
f 9/33/32 12/34/33 5/15/13 
f 11/11/34 6/6/6 5/5/5 
f 5/5/5 12/12/35 11/11/34 
f 15/24/20 6/6/6 11/11/34 
f 11/11/34 19/21/36 15/24/20 
f 19/35/37 20/36/38 16/18/16 
f 16/18/16 15/17/15 19/35/37 
f 21/25/25 16/18/16 20/36/38 
f 20/36/38 25/30/39 21/25/25 
# 46 faces

#
# object pPlane1
#

v  51.6827 4.3549 0.5000
v  52.4798 3.7510 0.5000
v  52.4798 3.7510 -0.5000
v  51.6827 4.3549 -0.5000
# 4 vertices

vn 0.6039 0.7970 0.0000
# 1 vertex normals

vt 0.0000 0.0000 0.0000
vt 1.0000 0.0000 0.0000
vt 1.0000 1.0000 0.0000
vt 0.0000 1.0000 0.0000
# 4 texture coords

o pPlane1
g pPlane1
usemtl lambert1
f 26/37/40 27/38/40 28/39/40 
f 28/39/40 29/40/40 26/37/40 
# 2 faces

#
# object pPlane2
#

v  51.2650 2.2945 0.5479
v  52.1534 2.7423 0.4468
v  52.0546 2.7137 -0.5479
v  51.1663 2.2658 -0.4468
# 4 vertices

vn -0.4484 0.8936 0.0188
# 1 vertex normals

vt 0.0000 0.0000 0.0000
vt 1.0000 0.0000 0.0000
vt 1.0000 1.0000 0.0000
vt 0.0000 1.0000 0.0000
# 4 texture coords

o pPlane2
g pPlane2
usemtl lambert1
f 30/41/41 31/42/41 32/43/41 
f 32/43/41 33/44/41 30/41/41 
# 2 faces

#
# object pPlane3
#

v  53.6121 1.8091 1.4368
v  53.5614 2.5762 0.7974
v  52.5634 2.5623 0.8598
v  52.6142 1.7951 1.4992
# 4 vertices

vn 0.0390 0.6413 0.7663
# 1 vertex normals

vt 0.0000 0.0000 0.0000
vt 1.0000 0.0000 0.0000
vt 1.0000 1.0000 0.0000
vt 0.0000 1.0000 0.0000
# 4 texture coords

o pPlane3
g pPlane3
usemtl lambert1
f 34/45/42 35/46/42 36/47/42 
f 36/47/42 37/48/42 34/45/42 
# 2 faces

#
# object pPlane4
#

v  54.7084 2.1857 -0.7838
v  53.9561 2.8416 -0.7206
v  53.8372 2.6121 0.2454
v  54.5895 1.9563 0.1822
# 4 vertices

vn 0.6480 0.7192 0.2506
# 1 vertex normals

vt 0.0000 0.0000 0.0000
vt 1.0000 0.0000 0.0000
vt 1.0000 1.0000 0.0000
vt 0.0000 1.0000 0.0000
# 4 texture coords

o pPlane4
g pPlane4
usemtl lambert1
f 38/49/43 39/50/43 40/51/43 
f 40/51/43 41/52/43 38/49/43 
# 2 faces

#
# object pPlane5
#

v  52.5636 3.2257 -1.5978
v  52.6226 3.6780 -0.7079
v  53.5950 3.4504 -0.6566
v  53.5360 2.9980 -1.5465
# 4 vertices

vn 0.2258 0.8623 -0.4533
# 1 vertex normals

vt 0.0000 0.0000 0.0000
vt 1.0000 0.0000 0.0000
vt 1.0000 1.0000 0.0000
vt 0.0000 1.0000 0.0000
# 4 texture coords

o pPlane5
g pPlane5
usemtl lambert1
f 42/53/44 43/54/44 44/55/44 
f 44/55/44 45/56/44 42/53/44 
# 2 faces

#
# object pPlane6
#

v  53.4753 3.6866 0.7433
v  54.3542 4.1614 0.7903
v  54.3971 4.1809 -0.2086
v  53.5182 3.7061 -0.2556
# 4 vertices

vn -0.4752 0.8799 -0.0033
# 1 vertex normals

vt 0.0000 0.0000 0.0000
vt 1.0000 0.0000 0.0000
vt 1.0000 1.0000 0.0000
vt 0.0000 1.0000 0.0000
# 4 texture coords

o pPlane6
g pPlane6
usemtl lambert1
f 46/57/45 47/58/45 48/59/45 
f 48/59/45 49/60/45 46/57/45 
# 2 faces

#
# object pPlane7
#

v  53.2491 2.3418 -0.7608
v  53.2657 1.6197 -1.4524
v  52.2661 1.6244 -1.4813
v  52.2495 2.3464 -0.7897
# 4 vertices

vn 0.0241 0.6918 -0.7217
# 1 vertex normals

vt 0.0000 0.0000 0.0000
vt 1.0000 0.0000 0.0000
vt 1.0000 1.0000 0.0000
vt 0.0000 1.0000 0.0000
# 4 texture coords

o pPlane7
g pPlane7
usemtl lambert1
f 50/61/46 51/62/46 52/63/46 
f 52/63/46 53/64/46 50/61/46 
# 2 faces

#
# object pSphere4
#

v  53.2706 1.7196 -0.2101
v  53.0918 1.7196 -0.3400
v  53.1915 1.8839 -0.6467
v  53.5315 1.8839 -0.3997
v  52.8709 1.7196 -0.3400
v  52.7712 1.8839 -0.6467
v  52.6921 1.7196 -0.2101
v  52.4312 1.8839 -0.3997
v  52.6238 1.7196 -0.0000
v  52.3013 1.8839 -0.0000
v  52.6921 1.7196 0.2101
v  52.4312 1.8839 0.3997
v  52.8709 1.7196 0.3400
v  52.7712 1.8839 0.6467
v  53.0918 1.7196 0.3400
v  53.1915 1.8839 0.6467
v  53.2706 1.7196 0.2101
v  53.5315 1.8839 0.3997
v  53.3388 1.7196 -0.0000
v  53.6613 1.8839 -0.0000
v  53.2706 2.1398 -0.8901
v  53.7385 2.1398 -0.5501
v  52.6921 2.1398 -0.8901
v  52.2241 2.1398 -0.5501
v  52.0454 2.1398 0.0000
v  52.2241 2.1398 0.5501
v  52.6921 2.1398 0.8901
v  53.2706 2.1398 0.8901
v  53.7385 2.1398 0.5501
v  53.9173 2.1398 -0.0000
v  53.3213 2.4623 -1.0464
v  53.8715 2.4623 -0.6467
v  52.6413 2.4623 -1.0464
v  52.0912 2.4623 -0.6467
v  51.8811 2.4623 0.0000
v  52.0912 2.4623 0.6467
v  52.6413 2.4623 1.0464
v  53.3213 2.4623 1.0464
v  53.8715 2.4623 0.6467
v  54.0816 2.4623 -0.0000
v  53.3388 2.8198 -1.1003
v  53.9173 2.8198 -0.6800
v  52.6238 2.8198 -1.1003
v  52.0454 2.8198 -0.6800
v  51.8245 2.8198 0.0000
v  52.0454 2.8198 0.6800
v  52.6238 2.8198 1.1003
v  53.3388 2.8198 1.1003
v  53.9173 2.8198 0.6800
v  54.1382 2.8198 -0.0000
v  53.3213 3.1773 -1.0464
v  53.8715 3.1773 -0.6467
v  52.6413 3.1773 -1.0464
v  52.0912 3.1773 -0.6467
v  51.8811 3.1773 0.0000
v  52.0912 3.1773 0.6467
v  52.6413 3.1773 1.0464
v  53.3213 3.1773 1.0464
v  53.8715 3.1773 0.6467
v  54.0816 3.1773 0.0000
v  53.2706 3.4998 -0.8901
v  53.7385 3.4998 -0.5501
v  52.6921 3.4998 -0.8901
v  52.2241 3.4998 -0.5501
v  52.0454 3.4998 0.0000
v  52.2241 3.4998 0.5501
v  52.6921 3.4998 0.8901
v  53.2706 3.4998 0.8901
v  53.7385 3.4998 0.5501
v  53.9173 3.4998 0.0000
v  53.1915 3.7557 -0.6467
v  53.5315 3.7557 -0.3997
v  52.7712 3.7557 -0.6467
v  52.4312 3.7557 -0.3997
v  52.3013 3.7557 0.0000
v  52.4312 3.7557 0.3997
v  52.7712 3.7557 0.6467
v  53.1915 3.7557 0.6467
v  53.5315 3.7557 0.3997
v  53.6613 3.7557 0.0000
v  53.0918 3.9201 -0.3400
v  53.2706 3.9201 -0.2101
v  52.8709 3.9201 -0.3400
v  52.6921 3.9201 -0.2101
v  52.6238 3.9201 0.0000
v  52.6921 3.9201 0.2101
v  52.8709 3.9201 0.3400
v  53.0918 3.9201 0.3400
v  53.2706 3.9201 0.2101
v  53.3388 3.9201 0.0000
v  52.9813 1.6629 -0.0000
v  52.9813 3.9767 0.0000
# 92 vertices

vn 0.2776 -0.8815 -0.3821
vn -0.0000 -0.8815 -0.4722
vn -0.2776 -0.8815 -0.3821
vn -0.4491 -0.8815 -0.1459
vn -0.4491 -0.8815 0.1459
vn -0.2776 -0.8815 0.3821
vn 0.0000 -0.8815 0.4722
vn 0.2776 -0.8815 0.3821
vn 0.4491 -0.8815 0.1459
vn 0.4491 -0.8815 -0.1459
vn 0.4259 -0.6892 -0.5862
vn -0.0000 -0.6892 -0.7246
vn -0.4259 -0.6892 -0.5862
vn -0.6892 -0.6892 -0.2239
vn -0.6892 -0.6892 0.2239
vn -0.4259 -0.6892 0.5862
vn 0.0000 -0.6892 0.7246
vn 0.4259 -0.6892 0.5862
vn 0.6892 -0.6892 0.2239
vn 0.6892 -0.6892 -0.2239
vn 0.5290 -0.4361 -0.7280
vn -0.0000 -0.4361 -0.8999
vn -0.5290 -0.4361 -0.7280
vn -0.8559 -0.4361 -0.2781
vn -0.8559 -0.4361 0.2781
vn -0.5290 -0.4361 0.7280
vn 0.0000 -0.4361 0.8999
vn 0.5290 -0.4361 0.7280
vn 0.8559 -0.4361 0.2781
vn 0.8559 -0.4361 -0.2781
vn 0.5812 -0.1490 -0.8000
vn -0.0000 -0.1490 -0.9888
vn -0.5812 -0.1490 -0.8000
vn -0.9404 -0.1490 -0.3056
vn -0.9404 -0.1490 0.3056
vn -0.5812 -0.1490 0.8000
vn 0.0000 -0.1490 0.9888
vn 0.5812 -0.1490 0.8000
vn 0.9404 -0.1490 0.3056
vn 0.9404 -0.1490 -0.3056
vn 0.5812 0.1490 -0.8000
vn -0.0000 0.1490 -0.9888
vn -0.5812 0.1490 -0.8000
vn -0.9404 0.1490 -0.3056
vn -0.9404 0.1490 0.3056
vn -0.5812 0.1490 0.8000
vn 0.0000 0.1490 0.9888
vn 0.5812 0.1490 0.8000
vn 0.9404 0.1490 0.3056
vn 0.9404 0.1490 -0.3056
vn 0.5290 0.4361 -0.7280
vn -0.0000 0.4361 -0.8999
vn -0.5290 0.4361 -0.7280
vn -0.8559 0.4361 -0.2781
vn -0.8559 0.4361 0.2781
vn -0.5290 0.4361 0.7280
vn 0.0000 0.4361 0.8999
vn 0.5290 0.4361 0.7280
vn 0.8559 0.4361 0.2781
vn 0.8559 0.4361 -0.2781
vn 0.4259 0.6892 -0.5862
vn -0.0000 0.6892 -0.7246
vn -0.4259 0.6892 -0.5862
vn -0.6892 0.6892 -0.2239
vn -0.6892 0.6892 0.2239
vn -0.4259 0.6892 0.5862
vn 0.0000 0.6892 0.7246
vn 0.4259 0.6892 0.5862
vn 0.6892 0.6892 0.2239
vn 0.6892 0.6892 -0.2239
vn 0.2776 0.8815 -0.3821
vn -0.0000 0.8815 -0.4722
vn -0.2776 0.8815 -0.3821
vn -0.4491 0.8815 -0.1459
vn -0.4491 0.8815 0.1459
vn -0.2776 0.8815 0.3821
vn 0.0000 0.8815 0.4722
vn 0.2776 0.8815 0.3821
vn 0.4491 0.8815 0.1459
vn 0.4491 0.8815 -0.1459
vn 0.0966 -0.9864 -0.1329
vn -0.0000 -0.9864 -0.1643
vn -0.0966 -0.9864 -0.1329
vn -0.1562 -0.9864 -0.0508
vn -0.1562 -0.9864 0.0508
vn -0.0966 -0.9864 0.1329
vn 0.0000 -0.9864 0.1643
vn 0.0966 -0.9864 0.1329
vn 0.1562 -0.9864 0.0508
vn 0.1562 -0.9864 -0.0508
vn 0.0966 0.9864 -0.1329
vn -0.0000 0.9864 -0.1643
vn -0.0966 0.9864 -0.1329
vn -0.1562 0.9864 -0.0508
vn -0.1562 0.9864 0.0508
vn -0.0966 0.9864 0.1329
vn 0.0000 0.9864 0.1643
vn 0.0966 0.9864 0.1329
vn 0.1562 0.9864 0.0508
vn 0.1562 0.9864 -0.0508
# 100 vertex normals

vt 0.0000 0.1000 0.0000
vt 0.1000 0.1000 0.0000
vt 0.1000 0.2000 0.0000
vt 0.0000 0.2000 0.0000
vt 0.2000 0.1000 0.0000
vt 0.2000 0.2000 0.0000
vt 0.3000 0.1000 0.0000
vt 0.3000 0.2000 0.0000
vt 0.4000 0.1000 0.0000
vt 0.4000 0.2000 0.0000
vt 0.5000 0.1000 0.0000
vt 0.5000 0.2000 0.0000
vt 0.6000 0.1000 0.0000
vt 0.6000 0.2000 0.0000
vt 0.7000 0.1000 0.0000
vt 0.7000 0.2000 0.0000
vt 0.8000 0.1000 0.0000
vt 0.8000 0.2000 0.0000
vt 0.9000 0.1000 0.0000
vt 0.9000 0.2000 0.0000
vt 1.0000 0.1000 0.0000
vt 1.0000 0.2000 0.0000
vt 0.1000 0.3000 0.0000
vt 0.0000 0.3000 0.0000
vt 0.2000 0.3000 0.0000
vt 0.3000 0.3000 0.0000
vt 0.4000 0.3000 0.0000
vt 0.5000 0.3000 0.0000
vt 0.6000 0.3000 0.0000
vt 0.7000 0.3000 0.0000
vt 0.8000 0.3000 0.0000
vt 0.9000 0.3000 0.0000
vt 1.0000 0.3000 0.0000
vt 0.1000 0.4000 0.0000
vt 0.0000 0.4000 0.0000
vt 0.2000 0.4000 0.0000
vt 0.3000 0.4000 0.0000
vt 0.4000 0.4000 0.0000
vt 0.5000 0.4000 0.0000
vt 0.6000 0.4000 0.0000
vt 0.7000 0.4000 0.0000
vt 0.8000 0.4000 0.0000
vt 0.9000 0.4000 0.0000
vt 1.0000 0.4000 0.0000
vt 0.1000 0.5000 0.0000
vt 0.0000 0.5000 0.0000
vt 0.2000 0.5000 0.0000
vt 0.3000 0.5000 0.0000
vt 0.4000 0.5000 0.0000
vt 0.5000 0.5000 0.0000
vt 0.6000 0.5000 0.0000
vt 0.7000 0.5000 0.0000
vt 0.8000 0.5000 0.0000
vt 0.9000 0.5000 0.0000
vt 1.0000 0.5000 0.0000
vt 0.1000 0.6000 0.0000
vt 0.0000 0.6000 0.0000
vt 0.2000 0.6000 0.0000
vt 0.3000 0.6000 0.0000
vt 0.4000 0.6000 0.0000
vt 0.5000 0.6000 0.0000
vt 0.6000 0.6000 0.0000
vt 0.7000 0.6000 0.0000
vt 0.8000 0.6000 0.0000
vt 0.9000 0.6000 0.0000
vt 1.0000 0.6000 0.0000
vt 0.1000 0.7000 0.0000
vt 0.0000 0.7000 0.0000
vt 0.2000 0.7000 0.0000
vt 0.3000 0.7000 0.0000
vt 0.4000 0.7000 0.0000
vt 0.5000 0.7000 0.0000
vt 0.6000 0.7000 0.0000
vt 0.7000 0.7000 0.0000
vt 0.8000 0.7000 0.0000
vt 0.9000 0.7000 0.0000
vt 1.0000 0.7000 0.0000
vt 0.1000 0.8000 0.0000
vt 0.0000 0.8000 0.0000
vt 0.2000 0.8000 0.0000
vt 0.3000 0.8000 0.0000
vt 0.4000 0.8000 0.0000
vt 0.5000 0.8000 0.0000
vt 0.6000 0.8000 0.0000
vt 0.7000 0.8000 0.0000
vt 0.8000 0.8000 0.0000
vt 0.9000 0.8000 0.0000
vt 1.0000 0.8000 0.0000
vt 0.1000 0.9000 0.0000
vt 0.0000 0.9000 0.0000
vt 0.2000 0.9000 0.0000
vt 0.3000 0.9000 0.0000
vt 0.4000 0.9000 0.0000
vt 0.5000 0.9000 0.0000
vt 0.6000 0.9000 0.0000
vt 0.7000 0.9000 0.0000
vt 0.8000 0.9000 0.0000
vt 0.9000 0.9000 0.0000
vt 1.0000 0.9000 0.0000
vt 0.0500 0.0000 0.0000
vt 0.1500 0.0000 0.0000
vt 0.2500 0.0000 0.0000
vt 0.3500 0.0000 0.0000
vt 0.4500 0.0000 0.0000
vt 0.5500 0.0000 0.0000
vt 0.6500 0.0000 0.0000
vt 0.7500 0.0000 0.0000
vt 0.8500 0.0000 0.0000
vt 0.9500 0.0000 0.0000
vt 0.0500 1.0000 0.0000
vt 0.1500 1.0000 0.0000
vt 0.2500 1.0000 0.0000
vt 0.3500 1.0000 0.0000
vt 0.4500 1.0000 0.0000
vt 0.5500 1.0000 0.0000
vt 0.6500 1.0000 0.0000
vt 0.7500 1.0000 0.0000
vt 0.8500 1.0000 0.0000
vt 0.9500 1.0000 0.0000
# 119 texture coords

o pSphere4
g pSphere4
usemtl lambert1
f 54/65/47 55/66/47 56/67/47 
f 56/67/47 57/68/47 54/65/47 
f 55/66/48 58/69/48 59/70/48 
f 59/70/48 56/67/48 55/66/48 
f 58/69/49 60/71/49 61/72/49 
f 61/72/49 59/70/49 58/69/49 
f 60/71/50 62/73/50 63/74/50 
f 63/74/50 61/72/50 60/71/50 
f 62/73/51 64/75/51 65/76/51 
f 65/76/51 63/74/51 62/73/51 
f 64/75/52 66/77/52 67/78/52 
f 67/78/52 65/76/52 64/75/52 
f 66/77/53 68/79/53 69/80/53 
f 69/80/53 67/78/53 66/77/53 
f 68/79/54 70/81/54 71/82/54 
f 71/82/54 69/80/54 68/79/54 
f 70/81/55 72/83/55 73/84/55 
f 73/84/55 71/82/55 70/81/55 
f 72/83/56 54/85/56 57/86/56 
f 57/86/56 73/84/56 72/83/56 
f 57/68/57 56/67/57 74/87/57 
f 74/87/57 75/88/57 57/68/57 
f 56/67/58 59/70/58 76/89/58 
f 76/89/58 74/87/58 56/67/58 
f 59/70/59 61/72/59 77/90/59 
f 77/90/59 76/89/59 59/70/59 
f 61/72/60 63/74/60 78/91/60 
f 78/91/60 77/90/60 61/72/60 
f 63/74/61 65/76/61 79/92/61 
f 79/92/61 78/91/61 63/74/61 
f 65/76/62 67/78/62 80/93/62 
f 80/93/62 79/92/62 65/76/62 
f 67/78/63 69/80/63 81/94/63 
f 81/94/63 80/93/63 67/78/63 
f 69/80/64 71/82/64 82/95/64 
f 82/95/64 81/94/64 69/80/64 
f 71/82/65 73/84/65 83/96/65 
f 83/96/65 82/95/65 71/82/65 
f 73/84/66 57/86/66 75/97/66 
f 75/97/66 83/96/66 73/84/66 
f 75/88/67 74/87/67 84/98/67 
f 84/98/67 85/99/67 75/88/67 
f 74/87/68 76/89/68 86/100/68 
f 86/100/68 84/98/68 74/87/68 
f 76/89/69 77/90/69 87/101/69 
f 87/101/69 86/100/69 76/89/69 
f 77/90/70 78/91/70 88/102/70 
f 88/102/70 87/101/70 77/90/70 
f 78/91/71 79/92/71 89/103/71 
f 89/103/71 88/102/71 78/91/71 
f 79/92/72 80/93/72 90/104/72 
f 90/104/72 89/103/72 79/92/72 
f 80/93/73 81/94/73 91/105/73 
f 91/105/73 90/104/73 80/93/73 
f 81/94/74 82/95/74 92/106/74 
f 92/106/74 91/105/74 81/94/74 
f 82/95/75 83/96/75 93/107/75 
f 93/107/75 92/106/75 82/95/75 
f 83/96/76 75/97/76 85/108/76 
f 85/108/76 93/107/76 83/96/76 
f 85/99/77 84/98/77 94/109/77 
f 94/109/77 95/110/77 85/99/77 
f 84/98/78 86/100/78 96/111/78 
f 96/111/78 94/109/78 84/98/78 
f 86/100/79 87/101/79 97/112/79 
f 97/112/79 96/111/79 86/100/79 
f 87/101/80 88/102/80 98/113/80 
f 98/113/80 97/112/80 87/101/80 
f 88/102/81 89/103/81 99/114/81 
f 99/114/81 98/113/81 88/102/81 
f 89/103/82 90/104/82 100/115/82 
f 100/115/82 99/114/82 89/103/82 
f 90/104/83 91/105/83 101/116/83 
f 101/116/83 100/115/83 90/104/83 
f 91/105/84 92/106/84 102/117/84 
f 102/117/84 101/116/84 91/105/84 
f 92/106/85 93/107/85 103/118/85 
f 103/118/85 102/117/85 92/106/85 
f 93/107/86 85/108/86 95/119/86 
f 95/119/86 103/118/86 93/107/86 
f 95/110/87 94/109/87 104/120/87 
f 104/120/87 105/121/87 95/110/87 
f 94/109/88 96/111/88 106/122/88 
f 106/122/88 104/120/88 94/109/88 
f 96/111/89 97/112/89 107/123/89 
f 107/123/89 106/122/89 96/111/89 
f 97/112/90 98/113/90 108/124/90 
f 108/124/90 107/123/90 97/112/90 
f 98/113/91 99/114/91 109/125/91 
f 109/125/91 108/124/91 98/113/91 
f 99/114/92 100/115/92 110/126/92 
f 110/126/92 109/125/92 99/114/92 
f 100/115/93 101/116/93 111/127/93 
f 111/127/93 110/126/93 100/115/93 
f 101/116/94 102/117/94 112/128/94 
f 112/128/94 111/127/94 101/116/94 
f 102/117/95 103/118/95 113/129/95 
f 113/129/95 112/128/95 102/117/95 
f 103/118/96 95/119/96 105/130/96 
f 105/130/96 113/129/96 103/118/96 
f 105/121/97 104/120/97 114/131/97 
f 114/131/97 115/132/97 105/121/97 
f 104/120/98 106/122/98 116/133/98 
f 116/133/98 114/131/98 104/120/98 
f 106/122/99 107/123/99 117/134/99 
f 117/134/99 116/133/99 106/122/99 
f 107/123/100 108/124/100 118/135/100 
f 118/135/100 117/134/100 107/123/100 
f 108/124/101 109/125/101 119/136/101 
f 119/136/101 118/135/101 108/124/101 
f 109/125/102 110/126/102 120/137/102 
f 120/137/102 119/136/102 109/125/102 
f 110/126/103 111/127/103 121/138/103 
f 121/138/103 120/137/103 110/126/103 
f 111/127/104 112/128/104 122/139/104 
f 122/139/104 121/138/104 111/127/104 
f 112/128/105 113/129/105 123/140/105 
f 123/140/105 122/139/105 112/128/105 
f 113/129/106 105/130/106 115/141/106 
f 115/141/106 123/140/106 113/129/106 
f 115/132/107 114/131/107 124/142/107 
f 124/142/107 125/143/107 115/132/107 
f 114/131/108 116/133/108 126/144/108 
f 126/144/108 124/142/108 114/131/108 
f 116/133/109 117/134/109 127/145/109 
f 127/145/109 126/144/109 116/133/109 
f 117/134/110 118/135/110 128/146/110 
f 128/146/110 127/145/110 117/134/110 
f 118/135/111 119/136/111 129/147/111 
f 129/147/111 128/146/111 118/135/111 
f 119/136/112 120/137/112 130/148/112 
f 130/148/112 129/147/112 119/136/112 
f 120/137/113 121/138/113 131/149/113 
f 131/149/113 130/148/113 120/137/113 
f 121/138/114 122/139/114 132/150/114 
f 132/150/114 131/149/114 121/138/114 
f 122/139/115 123/140/115 133/151/115 
f 133/151/115 132/150/115 122/139/115 
f 123/140/116 115/141/116 125/152/116 
f 125/152/116 133/151/116 123/140/116 
f 125/143/117 124/142/117 134/153/117 
f 134/153/117 135/154/117 125/143/117 
f 124/142/118 126/144/118 136/155/118 
f 136/155/118 134/153/118 124/142/118 
f 126/144/119 127/145/119 137/156/119 
f 137/156/119 136/155/119 126/144/119 
f 127/145/120 128/146/120 138/157/120 
f 138/157/120 137/156/120 127/145/120 
f 128/146/121 129/147/121 139/158/121 
f 139/158/121 138/157/121 128/146/121 
f 129/147/122 130/148/122 140/159/122 
f 140/159/122 139/158/122 129/147/122 
f 130/148/123 131/149/123 141/160/123 
f 141/160/123 140/159/123 130/148/123 
f 131/149/124 132/150/124 142/161/124 
f 142/161/124 141/160/124 131/149/124 
f 132/150/125 133/151/125 143/162/125 
f 143/162/125 142/161/125 132/150/125 
f 133/151/126 125/152/126 135/163/126 
f 135/163/126 143/162/126 133/151/126 
f 55/66/127 54/65/127 144/164/127 
f 58/69/128 55/66/128 144/165/128 
f 60/71/129 58/69/129 144/166/129 
f 62/73/130 60/71/130 144/167/130 
f 64/75/131 62/73/131 144/168/131 
f 66/77/132 64/75/132 144/169/132 
f 68/79/133 66/77/133 144/170/133 
f 70/81/134 68/79/134 144/171/134 
f 72/83/135 70/81/135 144/172/135 
f 54/85/136 72/83/136 144/173/136 
f 135/154/137 134/153/137 145/174/137 
f 134/153/138 136/155/138 145/175/138 
f 136/155/139 137/156/139 145/176/139 
f 137/156/140 138/157/140 145/177/140 
f 138/157/141 139/158/141 145/178/141 
f 139/158/142 140/159/142 145/179/142 
f 140/159/143 141/160/143 145/180/143 
f 141/160/144 142/161/144 145/181/144 
f 142/161/145 143/162/145 145/182/145 
f 143/162/146 135/163/146 145/183/146 
# 180 faces

