# 3ds Max Wavefront OBJ Exporter v0.97b - (c)2007 guruware
# File Created: 18.05.2020 21:20:44

mtllib flowerLovely.mtl

#
# object flowerTinkerbell9
#

v  28.7013 4.6207 1.8030
v  28.3389 3.8403 2.2103
v  28.4898 3.9401 1.5810
v  28.5318 4.0306 1.5338
v  28.3239 4.3605 0.9686
v  28.4881 4.0004 1.4371
v  27.9615 3.5801 1.3759
v  28.4461 3.9100 1.4843
v  28.1838 3.9394 1.5238
v  28.3108 4.0269 1.8043
v  28.4326 4.2893 1.6674
v  28.3057 4.2018 1.3868
v  27.8581 3.7247 1.6753
v  27.9577 3.4594 1.6368
v  28.1812 3.6135 2.1309
v  28.0286 3.8422 2.0523
v  28.0170 4.2466 1.0871
v  28.1660 4.1434 0.8658
v  27.9513 3.6813 1.1071
v  27.8532 3.8940 1.2712
v  28.4284 4.7029 1.6031
v  28.7051 4.7414 1.5421
v  28.4816 4.5873 1.0480
v  28.2578 4.5853 1.2261
v  28.2695 4.1809 2.1913
v  28.4968 4.0573 2.3131
v  28.7115 4.5195 2.0718
v  28.4332 4.5336 2.0073
# 28 vertices

vn 0.9246 -0.3420 0.1675
vn 0.9176 -0.0866 -0.3881
vn 0.5297 -0.5726 -0.6257
vn 0.5622 -0.8270 0.0036
vn 0.8354 -0.5033 -0.2209
vn -0.6531 0.6956 0.2993
vn -0.8065 0.5898 -0.0399
vn -0.9539 0.2726 0.1257
vn -0.8004 0.3783 0.4649
vn -0.7982 -0.3689 0.4761
vn -0.8110 0.0737 -0.5804
vn -0.1815 0.9592 -0.2170
vn -0.1687 0.5165 0.8395
vn -0.8491 0.2972 -0.4367
vn -0.3431 0.6461 0.6818
vn -0.5534 0.8329 -0.0094
vn -0.3515 0.9361 -0.0106
vn -0.8373 -0.1101 0.5355
vn -0.5459 0.5727 0.6115
vn -0.4248 0.4702 0.7736
vn -0.9307 0.1214 -0.3449
vn -0.9159 0.0524 0.3980
vn -0.9224 -0.1687 0.3475
vn -0.4365 0.8775 -0.1986
vn -0.9234 0.3125 -0.2229
# 25 vertex normals

vt 0.4749 0.2500 0.0000
vt 0.4749 0.0000 0.0000
vt 0.6250 0.0000 0.0000
vt 0.6250 0.2500 0.0000
vt 0.4749 0.5000 0.0000
vt 0.6250 0.5000 0.0000
vt 0.4749 0.7500 0.0000
vt 0.6250 0.7500 0.0000
vt 0.4749 1.0000 0.0000
vt 0.6250 1.0000 0.0000
vt 0.8750 0.0000 0.0000
vt 0.8750 0.2500 0.0000
vt 0.1250 0.0000 0.0000
vt 0.3750 0.0000 0.0000
vt 0.3750 0.2500 0.0000
vt 0.1250 0.2500 0.0000
vt 0.3750 0.7500 0.0000
vt 0.3750 1.0000 0.0000
vt 0.3750 0.5000 0.0000
# 19 texture coords

o flowerTinkerbell9
g flowerTinkerbell9
usemtl lambert1
f 1/1/1 2/2/1 3/3/1 
f 3/3/1 4/4/1 1/1/1 
f 5/5/2 1/1/2 4/4/2 
f 4/4/2 6/6/2 5/5/2 
f 7/7/3 5/5/3 6/6/3 
f 6/6/3 8/8/3 7/7/3 
f 2/9/4 7/7/4 8/8/4 
f 8/8/4 3/10/4 2/9/4 
f 3/3/5 8/11/5 6/12/5 
f 6/12/5 4/4/5 3/3/5 
f 9/13/6 10/14/7 11/15/8 
f 11/15/8 12/16/9 9/13/6 
f 13/17/10 14/7/10 15/9/10 
f 15/9/10 16/18/10 13/17/10 
f 17/19/11 18/5/11 19/7/11 
f 19/7/11 20/17/11 17/19/11 
f 21/15/12 22/1/12 23/5/12 
f 23/5/12 24/19/12 21/15/12 
f 25/14/13 26/2/13 27/1/13 
f 27/1/13 28/15/13 25/14/13 
f 9/17/14 7/7/14 14/7/14 
f 14/7/14 13/17/14 9/17/14 
f 7/7/5 2/9/5 15/9/5 
f 15/9/5 14/7/5 7/7/5 
f 2/9/15 10/18/15 16/18/15 
f 16/18/15 15/9/15 2/9/15 
f 10/18/7 9/17/6 13/17/16 
f 13/17/16 16/18/16 10/18/7 
f 12/19/17 5/5/17 18/5/17 
f 18/5/17 17/19/17 12/19/17 
f 5/5/5 7/7/5 19/7/5 
f 19/7/5 18/5/5 5/5/5 
f 7/7/18 9/17/18 20/17/18 
f 20/17/18 19/7/18 7/7/18 
f 9/17/6 12/19/9 17/19/19 
f 17/19/19 20/17/19 9/17/6 
f 11/15/20 1/1/20 22/1/20 
f 22/1/20 21/15/20 11/15/20 
f 1/1/5 5/5/5 23/5/5 
f 23/5/5 22/1/5 1/1/5 
f 5/5/21 12/19/21 24/19/21 
f 24/19/21 23/5/21 5/5/21 
f 12/19/9 11/15/8 21/15/22 
f 21/15/22 24/19/22 12/19/9 
f 10/14/23 2/2/23 26/2/23 
f 26/2/23 25/14/23 10/14/23 
f 2/2/5 1/1/5 27/1/5 
f 27/1/5 26/2/5 2/2/5 
f 1/1/24 11/15/24 28/15/24 
f 28/15/24 27/1/24 1/1/24 
f 11/15/8 10/14/7 25/14/25 
f 25/14/25 28/15/25 11/15/8 
# 52 faces

#
# object flowerFairyBase2
#

v  29.1303 3.6384 1.2937
v  29.0914 3.6344 1.3051
v  29.0901 3.5646 1.3060
v  29.1299 3.5694 1.2944
v  29.1299 3.5646 1.2336
v  29.0901 3.5646 1.2205
v  29.0914 3.6344 1.2213
v  29.1303 3.6344 1.2342
v  29.5488 0.3777 1.3359
v  29.4901 0.3777 1.3354
v  29.4901 0.3777 1.2849
v  29.5368 0.3777 1.2989
v  29.1438 3.6325 1.2643
v  29.1436 3.5628 1.2643
v  29.0554 3.5646 1.2336
v  29.0414 3.5646 1.2643
v  29.0438 3.6344 1.2643
v  29.0575 3.6344 1.2342
v  29.4405 0.3777 1.2989
v  29.4282 0.3777 1.3359
v  29.4901 0.3777 1.3859
v  29.5368 0.3777 1.3720
v  29.4405 0.3777 1.3720
v  29.3663 4.7766 1.3000
v  29.4009 4.7766 1.2900
v  29.4134 4.7747 1.2640
v  29.4009 4.7766 1.2373
v  29.3663 4.7766 1.2258
v  29.3373 4.7766 1.2373
v  29.3246 4.7766 1.2640
v  29.3373 4.7766 1.2900
v  29.4798 2.5573 1.4360
v  29.5278 2.5573 1.4511
v  29.5295 2.6052 1.4509
v  29.4823 2.6052 1.4358
v  29.5807 2.6052 1.3571
v  29.5972 2.6035 1.3969
v  29.5953 2.5558 1.3969
v  29.5791 2.5573 1.3569
v  29.5278 2.5573 1.3405
v  29.5295 2.6052 1.3406
v  29.4823 2.6052 1.3571
v  29.4798 2.5573 1.3569
v  29.4633 2.5573 1.3969
v  29.4655 2.6052 1.3969
v  29.4793 1.5659 1.2939
v  29.5108 1.5443 1.3123
v  29.5791 2.5462 1.4360
v  29.5570 1.5443 1.2986
v  29.5705 1.5434 1.2632
v  29.5570 1.5443 1.2269
v  29.5108 1.5443 1.2125
v  29.4651 1.5443 1.2269
v  29.4514 1.5443 1.2632
v  29.5096 1.5026 1.3124
v  29.5559 1.5026 1.2987
v  29.5692 1.5018 1.2632
v  29.5559 1.5026 1.2268
v  29.5096 1.5026 1.2125
v  29.4634 1.5026 1.2268
v  29.4499 1.5026 1.2632
v  29.4634 1.4913 1.2987
v  28.3491 2.1627 1.8038
v  28.3503 2.2044 1.8037
v  28.3188 2.2260 1.7853
v  28.2909 2.2044 1.7546
v  28.2893 2.1627 1.7546
v  28.3028 2.1514 1.7901
v  29.0027 1.7404 1.6330
v  29.0039 1.7821 1.6328
v  28.9782 1.7873 1.6640
v  28.9770 1.7456 1.6642
v  28.9445 1.7821 1.5837
v  28.9430 1.7404 1.5838
v  28.9172 1.7456 1.6150
v  28.9188 1.7873 1.6149
v  28.9565 1.7291 1.6193
v  28.9307 1.7343 1.6505
v  30.6888 2.8090 2.1423
v  30.7402 2.7978 2.1272
v  30.7563 2.8074 2.0882
v  30.7582 2.8551 2.0881
v  30.7418 2.8722 2.1271
v  30.6906 2.8568 2.1421
v  29.8815 2.5536 1.7144
v  29.9328 2.5424 1.6993
v  29.9852 2.5415 1.7649
v  29.9339 2.5527 1.7800
v  29.9490 2.5520 1.6603
v  30.0014 2.5511 1.7259
v  29.9344 2.6168 1.6992
v  29.8832 2.6015 1.7142
v  29.9357 2.6005 1.7798
v  29.9869 2.6159 1.7648
v  29.9304 2.6001 1.6347
v  29.5807 2.6206 1.4358
v  30.0237 2.5984 1.7514
v  29.0582 3.6550 1.2935
v  29.0547 3.5440 1.2946
v  28.9887 1.8005 1.5947
v  28.9304 1.8122 1.6654
v  30.3643 3.3913 1.4394
v  30.3118 3.3923 1.3738
v  30.2933 3.4403 1.3483
v  30.2973 3.4571 1.4127
v  30.3497 3.4561 1.4783
v  30.3866 3.4387 1.4650
v  28.4090 3.9948 1.5860
v  28.4103 4.0646 1.5851
v  28.3771 4.0852 1.5735
v  28.3627 4.0646 1.5443
v  28.3603 3.9948 1.5443
v  28.3736 3.9742 1.5746
v  29.0190 2.3260 1.9893
v  29.0447 2.3208 1.9581
v  29.0294 2.3392 1.9200
v  28.9853 2.3208 1.9090
v  28.9595 2.3260 1.9402
v  28.9712 2.3509 1.9906
# 119 vertices

vn 0.5155 -0.1121 0.8495
vn 0.0190 0.0117 0.9998
vn -0.0743 0.2559 0.9638
vn 0.3997 0.4199 0.8148
vn 0.5555 0.0398 -0.8306
vn -0.1493 -0.2980 -0.9428
vn -0.0853 0.0306 -0.9959
vn 0.5594 -0.1224 -0.8198
vn 0.0000 -1.0000 0.0000
vn 0.0000 -1.0000 -0.0000
vn 0.9521 -0.2142 -0.2181
vn 0.9757 -0.2192 -0.0004
vn 0.9135 0.4042 -0.0467
vn 0.9156 0.3586 -0.1821
vn -0.8872 -0.4212 -0.1882
vn -0.9022 -0.3255 -0.2828
vn -0.9164 0.1646 -0.3649
vn -0.9503 0.2253 -0.2150
vn -0.6169 0.1490 -0.7728
vn -0.5438 -0.4129 -0.7306
vn 0.8916 0.4372 0.1179
vn 0.9492 -0.2147 0.2301
vn 0.0103 0.9999 -0.0000
vn -0.6678 -0.1936 0.7188
vn -0.1525 -0.2682 0.9512
vn 0.0248 0.3134 0.9493
vn -0.5513 0.0079 0.8342
vn 0.9122 0.3681 -0.1801
vn 0.9359 0.3324 -0.1166
vn 0.9958 -0.0531 -0.0742
vn 0.9823 0.0247 -0.1855
vn 0.5348 0.1965 -0.8218
vn 0.0032 0.2463 -0.9692
vn 0.1303 -0.1814 -0.9747
vn 0.5549 0.0369 -0.8311
vn -0.5404 -0.4187 -0.7299
vn -0.5480 0.2146 -0.8085
vn -0.9799 0.0638 -0.1889
vn -0.9963 -0.0143 0.0851
vn -0.9195 -0.3930 -0.0070
vn -0.8848 -0.4269 -0.1867
vn -0.9258 -0.3490 0.1450
vn -0.9513 -0.0738 0.2992
vn -0.6718 -0.2029 0.7124
vn -0.0170 -0.2755 0.9611
vn 0.4821 -0.2503 0.8396
vn 0.4842 -0.2410 0.8411
vn 0.9800 -0.0738 0.1849
vn 0.9994 -0.0157 -0.0320
vn 0.9798 -0.0753 0.1851
vn 0.9825 0.0248 -0.1847
vn 0.5338 0.2009 -0.8214
vn -0.0054 0.2466 -0.9691
vn -0.5462 0.2168 -0.8091
vn -0.9801 0.0633 -0.1881
vn -0.9861 0.0201 -0.1651
vn -0.9487 -0.0820 0.3053
vn 0.0490 0.1327 0.9899
vn 0.5198 0.1023 0.8481
vn 0.9856 0.0042 0.1692
vn 0.9997 -0.0200 -0.0137
vn 0.9854 -0.0394 -0.1656
vn 0.5290 -0.1183 -0.8403
vn 0.0055 -0.1278 -0.9918
vn -0.5185 -0.1002 -0.8492
vn -0.9857 -0.0012 -0.1685
vn -0.9926 0.0198 -0.1197
vn -0.5174 0.1261 0.8464
vn -0.0132 0.1363 0.9906
vn 0.5197 0.1066 0.8477
vn 0.9856 0.0053 0.1688
vn 0.9998 -0.0158 0.0143
vn 0.9855 -0.0399 -0.1652
vn -0.0050 -0.1326 -0.9912
vn 0.5285 -0.1221 -0.8401
vn -0.5177 -0.1042 -0.8492
vn -0.9858 -0.0028 -0.1681
vn -0.9996 0.0224 0.0151
vn -0.9836 0.0438 0.1749
vn -0.8488 0.1729 0.4997
vn 0.8005 -0.0187 0.5991
vn 0.8265 -0.2022 0.5254
vn 0.7106 -0.3346 0.6189
vn 0.4967 -0.0077 0.8679
vn -0.8243 0.2090 -0.5262
vn -0.7985 0.0293 -0.6013
vn -0.4918 0.0176 -0.8705
vn -0.7081 0.3386 -0.6197
vn -0.4674 -0.8827 -0.0478
vn -0.4555 -0.8888 -0.0509
vn -0.5516 -0.8337 -0.0248
vn -0.5405 -0.8409 -0.0280
vn 0.0242 -0.9432 0.3312
vn 0.0258 -0.9440 0.3290
vn -0.1724 -0.7874 0.5918
vn -0.1791 -0.7798 0.5999
vn 0.8543 -0.0217 0.5194
vn -0.1577 -0.9836 0.0874
vn -0.1572 -0.9836 0.0882
vn -0.0251 -0.9548 0.2960
vn -0.0257 -0.9551 0.2952
vn 0.1483 -0.9852 -0.0859
vn 0.6555 -0.7061 -0.2679
vn 0.6398 -0.7363 -0.2201
vn 0.3476 -0.9368 -0.0401
vn -0.6864 0.6709 0.2807
vn -0.2077 0.9695 0.1304
vn -0.2877 0.9577 -0.0076
vn -0.5944 0.7849 0.1750
vn -0.8569 0.0368 0.5141
vn -0.8568 0.0368 0.5143
vn -0.7470 0.0342 0.6640
vn -0.7375 0.0339 0.6745
vn -0.1539 -0.9836 0.0937
vn 0.1280 -0.9877 -0.0902
vn 0.8209 -0.1615 -0.5478
vn 0.2177 0.9662 -0.1384
vn -0.2026 0.9694 0.1388
vn -0.8368 0.0364 0.5462
vn -0.7080 0.0332 0.7054
vn -0.2962 0.9548 -0.0231
vn -0.0215 0.9502 -0.3110
vn 0.6270 0.2516 -0.7372
vn 0.3512 -0.9355 -0.0392
vn -0.0054 -0.9456 0.3253
vn -0.6168 0.1576 -0.7712
vn 0.0876 -0.0130 -0.9961
vn 0.5590 -0.1299 -0.8189
vn 0.9724 -0.2331 0.0037
vn 0.9490 -0.2275 -0.2181
vn 0.9462 -0.2269 0.2305
vn 0.0794 -0.0098 0.9968
vn 0.5154 -0.1185 0.8487
vn -0.5456 0.1422 0.8259
vn -0.9697 0.2434 -0.0196
vn -0.9531 0.2402 0.1843
vn -0.9475 0.2369 -0.2147
vn -0.5516 0.0069 0.8341
vn 0.3917 0.4394 0.8084
vn 0.8817 0.4583 0.1118
vn -0.9162 -0.3755 0.1400
vn 0.5088 0.8566 0.0855
vn -0.0545 0.9241 -0.3784
vn -0.4689 -0.8820 -0.0474
vn 0.0150 -0.9387 0.3445
vn 0.7898 -0.0182 0.6131
vn 0.4135 -0.0050 0.9105
vn -0.2033 -0.7510 0.6282
vn -0.5547 -0.8317 -0.0240
vn -0.4084 0.0145 -0.9127
vn 0.4161 0.8470 -0.3309
vn 0.5248 0.8475 -0.0796
vn 0.7784 0.5523 -0.2985
vn -0.8693 0.0376 0.4928
vn 0.0796 0.9957 -0.0468
vn 0.6494 0.0096 0.7604
vn 0.5246 0.8513 -0.0054
vn 0.2508 0.8975 -0.3628
vn -0.6383 0.0209 -0.7695
vn -0.5999 -0.7897 -0.1288
vn 0.0375 -0.7838 0.6199
vn 0.7734 -0.5562 -0.3041
vn 0.3336 -0.6400 -0.6922
vn -0.9208 0.3894 -0.0207
vn -0.7734 0.5562 0.3041
vn 0.6485 0.2324 0.7249
vn 0.9102 -0.4137 -0.0200
vn 0.7846 -0.5084 0.3547
vn 0.9786 0.1280 -0.1609
vn -0.0032 0.7841 -0.6206
vn -0.7846 0.5084 -0.3548
vn -0.9871 -0.0909 0.1321
vn -0.3393 -0.7273 0.5965
# 173 vertex normals

vt 0.6250 0.2258 0.0000
vt 0.5110 0.2258 0.0000
vt 0.5110 0.2212 0.0000
vt 0.6250 0.2212 0.0000
vt 0.6250 0.5288 0.0000
vt 0.5110 0.5288 0.0000
vt 0.5110 0.5242 0.0000
vt 0.6250 0.5242 0.0000
vt 0.6250 0.8764 0.0000
vt 0.5110 0.8764 0.0000
vt 0.5110 0.7500 0.0000
vt 0.6250 0.7500 0.0000
vt 0.8750 0.2258 0.0000
vt 0.7486 0.2258 0.0000
vt 0.7486 0.2212 0.0000
vt 0.8750 0.2212 0.0000
vt 0.1250 0.2212 0.0000
vt 0.2514 0.2212 0.0000
vt 0.2514 0.2258 0.0000
vt 0.1250 0.2258 0.0000
vt 0.3750 0.7500 0.0000
vt 0.3750 0.8764 0.0000
vt 0.3750 0.5242 0.0000
vt 0.3750 0.5288 0.0000
vt 0.5110 1.0000 0.0000
vt 0.6250 1.0000 0.0000
vt 0.3750 1.0000 0.0000
vt 0.5110 0.2500 0.0000
vt 0.6250 0.2500 0.0000
vt 0.7486 0.2500 0.0000
vt 0.6250 0.5000 0.0000
vt 0.5110 0.5000 0.0000
vt 0.1250 0.2500 0.0000
vt 0.2514 0.2500 0.0000
vt 0.3750 0.2500 0.0000
vt 0.3750 0.1440 0.0000
vt 0.5110 0.1440 0.0000
vt 0.5110 0.1580 0.0000
vt 0.3750 0.1580 0.0000
vt 0.8750 0.1580 0.0000
vt 0.7486 0.1580 0.0000
vt 0.7486 0.1440 0.0000
vt 0.8750 0.1440 0.0000
vt 0.6250 0.6060 0.0000
vt 0.5110 0.6060 0.0000
vt 0.5110 0.5920 0.0000
vt 0.6250 0.5920 0.0000
vt 0.3750 0.5920 0.0000
vt 0.3750 0.6060 0.0000
vt 0.1250 0.1440 0.0000
vt 0.2514 0.1440 0.0000
vt 0.2514 0.1580 0.0000
vt 0.1250 0.1580 0.0000
vt 0.3750 0.0839 0.0000
vt 0.5110 0.0839 0.0000
vt 0.6250 0.1440 0.0000
vt 0.6250 0.0839 0.0000
vt 0.7486 0.0839 0.0000
vt 0.8750 0.0839 0.0000
vt 0.6250 0.6661 0.0000
vt 0.5110 0.6661 0.0000
vt 0.3750 0.6661 0.0000
vt 0.1250 0.0839 0.0000
vt 0.2514 0.0839 0.0000
vt 0.5110 0.0732 0.0000
vt 0.6250 0.0732 0.0000
vt 0.7486 0.0732 0.0000
vt 0.8750 0.0732 0.0000
vt 0.6250 0.6768 0.0000
vt 0.5110 0.6768 0.0000
vt 0.3750 0.6768 0.0000
vt 0.1250 0.0732 0.0000
vt 0.2514 0.0732 0.0000
vt 0.3750 0.0000 0.0000
vt 0.5110 0.0000 0.0000
vt 0.3750 0.0732 0.0000
vt 0.6250 0.0000 0.0000
vt 0.7486 0.0000 0.0000
vt 0.8750 0.0000 0.0000
vt 0.1250 0.0000 0.0000
vt 0.2514 0.0000 0.0000
vt 0.6250 0.1580 0.0000
vt 0.3750 0.5000 0.0000
vt 0.8750 0.2500 0.0000
vt 0.3750 0.2258 0.0000
vt 0.3750 0.2212 0.0000
# 86 texture coords

o flowerFairyBase2
g flowerFairyBase2
usemtl lambert1
f 29/20/26 30/21/27 31/22/28 
f 31/22/28 32/23/29 29/20/26 
f 33/24/30 34/25/31 35/26/32 
f 35/26/32 36/27/33 33/24/30 
f 37/28/34 38/29/34 39/30/35 
f 39/30/35 40/31/35 37/28/34 
f 36/32/36 41/33/37 42/34/38 
f 42/34/38 33/35/39 36/32/36 
f 43/36/40 44/37/41 45/38/42 
f 45/38/42 46/39/43 43/36/40 
f 47/40/34 39/30/35 38/29/34 
f 38/29/34 48/41/35 47/40/34 
f 46/42/44 35/26/32 34/25/31 
f 34/25/31 43/43/45 46/42/44 
f 32/23/46 42/34/38 41/33/37 
f 41/33/37 29/20/47 32/23/46 
f 49/44/34 38/29/34 37/28/34 
f 37/28/34 50/45/34 49/44/34 
f 48/41/35 38/29/34 49/44/34 
f 49/44/34 51/46/35 48/41/35 
f 52/47/48 53/48/48 54/49/48 
f 52/47/48 54/49/48 55/50/48 
f 52/47/48 55/50/48 56/51/48 
f 52/47/48 56/51/48 57/52/48 
f 52/47/48 57/52/48 58/53/48 
f 52/47/48 58/53/48 59/54/48 
f 60/55/49 61/56/50 62/57/51 
f 62/57/51 63/58/52 60/55/49 
f 64/59/53 65/60/54 66/61/55 
f 66/61/55 67/62/56 64/59/53 
f 67/63/57 68/64/58 69/65/59 
f 69/65/59 64/66/60 67/63/57 
f 70/67/61 69/65/59 68/64/58 
f 68/64/58 71/68/62 70/67/61 
f 71/69/63 72/70/64 73/71/65 
f 73/71/65 70/72/66 71/69/63 
f 63/58/67 73/71/65 72/70/64 
f 72/70/64 60/55/68 63/58/67 
f 74/73/69 75/74/70 61/56/50 
f 61/56/50 60/55/49 74/73/69 
f 76/75/71 61/56/50 75/74/70 
f 75/74/70 77/76/72 76/75/71 
f 77/76/73 78/77/74 66/61/55 
f 66/61/55 76/75/75 77/76/73 
f 67/62/56 66/61/55 78/77/74 
f 78/77/74 79/78/76 67/62/56 
f 79/79/77 80/80/78 68/64/58 
f 68/64/58 67/63/57 79/79/77 
f 71/68/62 68/64/58 80/80/78 
f 80/80/78 81/81/79 71/68/62 
f 81/82/80 82/83/81 72/70/64 
f 72/70/64 71/69/63 81/82/80 
f 60/55/68 72/70/64 82/83/81 
f 82/83/81 74/73/82 60/55/68 
f 77/76/72 75/74/70 83/84/83 
f 83/84/83 84/85/84 77/76/72 
f 84/85/85 85/86/86 78/77/74 
f 78/77/74 77/76/73 84/85/85 
f 79/78/76 78/77/74 85/86/86 
f 85/86/86 86/87/87 79/78/76 
f 86/88/88 87/89/89 80/80/78 
f 80/80/78 79/79/77 86/88/88 
f 81/81/79 80/80/78 87/89/89 
f 87/89/89 88/90/90 81/81/79 
f 88/91/91 89/92/92 82/83/81 
f 82/83/81 81/82/80 88/91/91 
f 51/93/93 49/94/94 83/84/83 
f 83/84/83 90/95/93 51/93/93 
f 84/85/84 83/84/83 49/94/94 
f 49/94/94 50/96/95 84/85/84 
f 50/96/96 37/97/97 85/86/86 
f 85/86/86 84/85/85 50/96/96 
f 86/87/87 85/86/86 37/97/97 
f 37/97/97 40/98/98 86/87/87 
f 39/30/99 87/89/89 86/88/88 
f 86/88/88 40/31/100 39/30/99 
f 88/90/90 87/89/89 39/30/99 
f 39/30/99 47/40/101 88/90/90 
f 47/99/102 48/100/103 89/92/92 
f 89/92/92 88/91/91 47/99/102 
f 90/95/104 89/92/92 48/100/103 
f 48/100/103 51/93/104 90/95/104 
f 91/84/105 92/74/105 93/73/105 
f 91/84/105 93/73/105 94/83/105 
f 91/84/105 94/83/105 95/92/105 
f 91/84/105 95/92/105 96/95/105 
f 97/84/106 98/74/107 99/74/108 
f 99/74/108 100/84/109 97/84/106 
f 101/83/110 102/92/111 103/92/112 
f 103/92/112 104/83/113 101/83/110 
f 102/92/114 105/95/115 106/95/116 
f 106/95/116 103/92/117 102/92/114 
f 105/95/118 97/84/119 100/84/120 
f 100/84/120 106/95/121 105/95/118 
f 107/56/122 108/75/122 109/61/122 
f 107/56/122 109/61/122 110/60/122 
f 107/56/122 110/60/122 111/101/122 
f 107/56/122 111/101/122 112/57/122 
f 113/56/123 114/75/124 115/75/125 
f 115/75/125 116/56/126 113/56/123 
f 114/75/127 117/61/128 118/61/129 
f 118/61/129 115/75/130 114/75/127 
f 119/101/131 120/57/132 121/57/133 
f 121/57/133 122/101/134 119/101/131 
f 120/57/135 113/56/136 116/56/137 
f 116/56/137 121/57/138 120/57/135 
f 61/56/139 76/75/139 114/75/124 
f 114/75/124 113/56/123 61/56/139 
f 76/75/140 66/61/140 117/61/128 
f 117/61/128 114/75/127 76/75/140 
f 66/61/55 65/60/54 123/60/141 
f 123/60/141 117/61/141 66/61/55 
f 65/60/142 124/101/142 119/101/142 
f 119/101/142 123/60/142 65/60/142 
f 124/101/143 62/57/143 120/57/132 
f 120/57/132 119/101/131 124/101/143 
f 62/57/144 61/56/144 113/56/136 
f 113/56/136 120/57/135 62/57/144 
f 121/57/138 116/56/137 107/56/145 
f 107/56/145 112/57/145 121/57/138 
f 122/101/134 121/57/133 112/57/146 
f 112/57/146 111/101/146 122/101/134 
f 125/60/147 122/101/147 111/101/147 
f 111/101/147 110/60/147 125/60/147 
f 118/61/148 125/60/148 110/60/148 
f 110/60/148 109/61/148 118/61/148 
f 115/75/130 118/61/129 109/61/149 
f 109/61/149 108/75/149 115/75/130 
f 116/56/126 115/75/125 108/75/150 
f 108/75/150 107/56/150 116/56/126 
f 57/102/151 56/51/152 35/26/32 
f 35/26/32 46/42/44 57/102/151 
f 36/27/33 35/26/32 56/51/152 
f 56/51/152 55/50/153 36/27/33 
f 54/49/154 41/33/37 36/32/36 
f 36/32/36 55/103/155 54/49/154 
f 29/20/47 41/33/37 54/49/154 
f 54/49/154 53/48/156 29/20/47 
f 52/47/157 30/21/27 29/20/26 
f 29/20/26 53/48/158 52/47/157 
f 126/104/159 30/21/27 52/47/157 
f 52/47/157 59/54/159 126/104/159 
f 58/53/160 45/38/42 126/104/161 
f 126/104/161 59/54/161 58/53/160 
f 46/39/43 45/38/42 58/53/160 
f 58/53/160 57/52/162 46/39/43 
f 63/58/52 62/57/51 31/22/28 
f 31/22/28 127/105/163 63/58/52 
f 32/23/29 31/22/28 62/57/51 
f 62/57/51 124/101/164 32/23/29 
f 124/101/165 65/60/54 42/34/38 
f 42/34/38 32/23/46 124/101/165 
f 33/35/39 42/34/38 65/60/54 
f 65/60/54 64/59/53 33/35/39 
f 64/66/60 69/65/59 34/25/31 
f 34/25/31 33/24/30 64/66/60 
f 43/43/45 34/25/31 69/65/59 
f 69/65/59 70/67/61 43/43/45 
f 70/72/66 73/71/65 44/37/41 
f 44/37/41 43/36/40 70/72/66 
f 127/105/166 44/37/41 73/71/65 
f 73/71/65 63/58/67 127/105/166 
f 75/74/167 74/73/167 128/73/167 
f 128/73/167 98/74/167 75/74/167 
f 74/73/168 82/83/168 101/83/168 
f 101/83/168 128/73/168 74/73/168 
f 82/83/81 89/92/92 102/92/111 
f 102/92/111 101/83/110 82/83/81 
f 89/92/169 90/95/169 105/95/115 
f 105/95/115 102/92/114 89/92/169 
f 90/95/170 83/84/170 97/84/119 
f 97/84/119 105/95/118 90/95/170 
f 83/84/171 75/74/171 98/74/107 
f 98/74/107 97/84/106 83/84/171 
f 100/84/109 99/74/108 92/74/172 
f 92/74/172 91/84/172 100/84/109 
f 106/95/121 100/84/120 91/84/173 
f 91/84/173 96/95/173 106/95/121 
f 103/92/117 106/95/116 96/95/174 
f 96/95/174 95/92/174 103/92/117 
f 104/83/113 103/92/112 95/92/175 
f 95/92/175 94/83/175 104/83/113 
f 129/73/176 104/83/176 94/83/176 
f 94/83/176 93/73/176 129/73/176 
f 99/74/177 129/73/177 93/73/177 
f 93/73/177 92/74/177 99/74/177 
f 130/61/178 131/61/178 132/60/178 
f 130/61/178 132/60/178 133/101/178 
f 130/61/178 133/101/178 134/101/178 
f 130/61/178 134/101/178 135/60/178 
f 136/22/179 137/21/179 138/104/179 
f 136/22/179 138/104/179 139/38/179 
f 136/22/179 139/38/179 140/37/179 
f 136/22/179 140/37/179 141/105/179 
f 142/74/180 143/74/180 144/73/180 
f 142/74/180 144/73/180 145/83/180 
f 142/74/180 145/83/180 146/83/180 
f 142/74/180 146/83/180 147/73/180 
f 31/22/181 30/21/181 137/21/181 
f 137/21/181 136/22/181 31/22/181 
f 30/21/182 126/104/182 138/104/182 
f 138/104/182 137/21/182 30/21/182 
f 126/104/183 45/38/183 139/38/183 
f 139/38/183 138/104/183 126/104/183 
f 45/38/42 44/37/41 140/37/184 
f 140/37/184 139/38/184 45/38/42 
f 44/37/185 127/105/185 141/105/185 
f 141/105/185 140/37/185 44/37/185 
f 127/105/186 31/22/186 136/22/186 
f 136/22/186 141/105/186 127/105/186 
f 118/61/129 117/61/128 131/61/187 
f 131/61/187 130/61/187 118/61/129 
f 117/61/188 123/60/188 132/60/188 
f 132/60/188 131/61/188 117/61/188 
f 123/60/189 119/101/189 133/101/189 
f 133/101/189 132/60/189 123/60/189 
f 119/101/131 122/101/134 134/101/190 
f 134/101/190 133/101/190 119/101/131 
f 122/101/191 125/60/191 135/60/191 
f 135/60/191 134/101/191 122/101/191 
f 125/60/192 118/61/192 130/61/192 
f 130/61/192 135/60/192 125/60/192 
f 99/74/108 98/74/107 143/74/193 
f 143/74/193 142/74/193 99/74/108 
f 98/74/194 128/73/194 144/73/194 
f 144/73/194 143/74/194 98/74/194 
f 128/73/195 101/83/195 145/83/195 
f 145/83/195 144/73/195 128/73/195 
f 101/83/110 104/83/113 146/83/196 
f 146/83/196 145/83/196 101/83/110 
f 104/83/197 129/73/197 147/73/197 
f 147/73/197 146/83/197 104/83/197 
f 129/73/198 99/74/198 142/74/198 
f 142/74/198 147/73/198 129/73/198 
# 234 faces

