# 3ds Max Wavefront OBJ Exporter v0.97b - (c)2007 guruware
# File Created: 18.05.2020 21:12:02

mtllib flowerCrystal.mtl

#
# object flowerCrystal
#

v  68.7084 1.9239 -0.7616
v  68.9572 1.5036 0.0170
v  68.5587 1.6782 0.5352
v  68.1060 1.8919 0.9165
v  67.1953 1.9194 0.6735
v  66.9025 1.9194 -0.0336
v  67.1567 2.1068 -0.7075
v  67.9025 1.9194 -1.0336
v  68.9924 7.2778 -0.7101
v  68.1564 8.1204 -0.8592
v  67.8988 10.2734 0.1271
v  67.0879 7.9724 -0.8687
v  67.2495 10.7955 0.0986
v  66.9857 10.0680 0.1262
v  67.5555 10.5563 0.2463
v  67.1804 9.4205 0.4948
v  67.4210 9.2093 0.4872
v  67.8957 6.5695 0.7800
v  68.7921 6.7768 0.8302
v  69.1779 7.1044 0.1172
v  68.8715 3.1633 -1.0707
v  69.3513 3.4260 -0.1253
v  69.0460 3.5042 0.7075
v  68.3600 3.5631 0.9623
v  67.3963 3.2596 0.7039
v  67.0503 3.5919 -0.0336
v  67.3431 3.5919 -0.7407
v  68.1075 3.7954 -1.3972
v  67.2643 7.6262 0.5850
v  66.9560 7.7097 -0.2214
# 30 vertices

vn -0.1645 -0.9826 -0.0868
vn 0.3742 0.1131 -0.9204
vn 0.4486 0.2348 -0.8623
vn 0.5384 0.4033 -0.7399
vn -0.2715 0.1337 -0.9531
vn -0.2757 0.1104 -0.9549
vn 0.2359 0.3504 -0.9064
vn -0.3289 0.1547 0.9316
vn -0.4581 0.3317 0.8247
vn 0.1686 0.1572 0.9731
vn -0.0950 0.1729 0.9804
vn 0.7698 0.3090 0.5585
vn 0.9454 0.1121 -0.3061
vn 0.9469 0.1359 -0.2914
vn 0.9195 0.3716 -0.1283
vn 0.9270 -0.0543 -0.3710
vn 0.9309 -0.0221 -0.3646
vn 0.8926 -0.2139 -0.3968
vn 0.8965 -0.0497 0.4402
vn 0.8989 -0.0379 0.4365
vn 0.8520 -0.2042 0.4821
vn 0.2367 -0.0336 0.9710
vn 0.2285 -0.0293 0.9731
vn 0.4543 -0.1511 0.8780
vn -0.2643 0.0172 0.9643
vn -0.2634 0.0166 0.9646
vn -0.2605 0.0149 0.9654
vn -0.9158 0.0293 0.4006
vn -0.9191 0.0086 0.3940
vn -0.9012 0.1001 0.4216
vn -0.9466 -0.0086 -0.3224
vn -0.9468 -0.0112 -0.3215
vn -0.9298 0.0947 -0.3556
vn -0.4079 0.0132 -0.9129
vn -0.3809 0.0223 -0.9243
vn -0.5448 -0.0355 -0.8378
vn 0.3491 0.0460 -0.9360
vn 0.3215 -0.0551 -0.9453
vn 0.2636 -0.2333 -0.9360
vn 0.9103 0.0343 0.4125
vn 0.1260 0.0238 0.9917
vn -0.2655 0.0179 0.9639
vn -0.9217 -0.0106 0.3878
vn -0.9473 -0.0111 -0.3202
vn -0.9445 0.0154 -0.3282
vn -0.9250 0.1252 -0.3586
vn 0.3048 0.3303 -0.8933
vn -0.9265 -0.0353 0.3746
vn -0.5828 0.0241 0.8122
vn -0.8637 -0.0205 0.5036
vn -0.1083 0.0720 0.9915
vn 0.3534 0.1537 0.9228
vn 0.0000 0.0000 -0.0000
vn 0.7278 0.1247 0.6743
vn 0.0000 0.0000 0.0000
vn -0.0000 -0.0000 -0.0000
vn -0.1239 -0.0397 -0.9915
# 57 vertex normals

vt 0.6768 0.0732 0.0000
vt 0.7500 0.2500 0.0000
vt 0.6768 0.4268 0.0000
vt 0.5000 0.5000 0.0000
vt 0.3232 0.4268 0.0000
vt 0.2500 0.2500 0.0000
vt 0.3232 0.0732 0.0000
vt 0.5000 0.0000 0.0000
vt 0.2500 0.5000 0.0000
vt 0.3125 0.5000 0.0000
vt 0.5000 1.0000 0.0000
vt 0.3750 0.5000 0.0000
vt 0.4375 0.5000 0.0000
vt 0.5625 0.5000 0.0000
vt 0.6250 0.5000 0.0000
vt 0.6875 0.5000 0.0000
vt 0.7500 0.5000 0.0000
# 17 texture coords

o flowerCrystal
g flowerCrystal
usemtl lambert1
f 1/1/1 2/2/1 3/3/1 
f 1/1/1 3/3/1 4/4/1 
f 1/1/1 4/4/1 5/5/1 
f 1/1/1 5/5/1 6/6/1 
f 1/1/1 6/6/1 7/7/1 
f 1/1/1 7/7/1 8/8/1 
f 9/9/2 10/10/3 11/11/4 
f 10/10/5 12/12/6 11/11/7 
f 13/12/8 14/13/8 15/11/8 
f 14/13/9 16/4/9 15/11/9 
f 16/4/10 17/14/10 15/11/10 
f 18/14/11 19/15/11 11/11/11 
f 19/15/12 20/16/12 11/11/12 
f 20/16/13 9/17/14 11/11/15 
f 21/1/16 22/2/17 2/2/18 
f 2/2/18 1/1/18 21/1/16 
f 22/2/19 23/3/20 3/3/21 
f 3/3/21 2/2/21 22/2/19 
f 23/3/22 24/4/23 4/4/24 
f 4/4/24 3/3/24 23/3/22 
f 24/4/25 25/5/26 5/5/27 
f 5/5/27 4/4/27 24/4/25 
f 25/5/28 26/6/29 6/6/30 
f 6/6/30 5/5/30 25/5/28 
f 26/6/31 27/7/32 7/7/33 
f 7/7/33 6/6/33 26/6/31 
f 27/7/34 28/8/35 8/8/36 
f 8/8/36 7/7/36 27/7/34 
f 28/8/37 21/1/38 1/1/39 
f 1/1/39 8/8/39 28/8/37 
f 20/2/40 19/3/40 23/3/20 
f 23/3/20 22/2/19 20/2/40 
f 19/3/41 18/4/41 24/4/23 
f 24/4/23 23/3/22 19/3/41 
f 18/4/42 29/5/42 25/5/26 
f 25/5/26 24/4/25 18/4/42 
f 29/5/43 30/6/43 26/6/29 
f 26/6/29 25/5/28 29/5/43 
f 30/6/44 12/7/45 27/7/32 
f 27/7/32 26/6/31 30/6/44 
f 12/7/6 10/8/5 28/8/35 
f 28/8/35 27/7/34 12/7/6 
f 10/8/3 9/1/2 21/1/38 
f 21/1/38 28/8/37 10/8/3 
f 9/1/14 20/2/13 22/2/17 
f 22/2/17 21/1/16 9/1/14 
f 12/12/45 30/13/44 14/13/46 
f 14/13/46 13/12/46 12/12/45 
f 11/11/7 12/12/6 13/12/47 
f 13/12/47 15/11/47 11/11/7 
f 30/13/48 29/4/49 16/4/50 
f 16/4/50 14/13/48 30/13/48 
f 29/4/49 18/14/51 17/14/51 
f 17/14/51 16/4/50 29/4/49 
f 18/14/52 11/11/52 15/11/52 
f 15/11/52 17/14/52 18/14/52 
f 18/14/53 19/15/53 19/15/53 
f 19/15/53 18/14/53 18/14/53 
f 11/11/54 18/14/55 18/14/55 
f 18/14/55 11/11/54 11/11/54 
f 19/15/53 20/16/53 20/16/53 
f 20/16/53 19/15/53 19/15/53 
f 20/16/56 11/11/57 11/11/57 
f 11/11/57 20/16/56 20/16/56 
# 64 faces

#
# object floralTree6
#

v  67.9902 2.0576 0.1185
v  68.0035 -1.2698 0.1278
v  68.1244 -1.2698 0.0919
v  68.1067 2.0576 0.0850
v  68.0035 -1.2698 -0.1320
v  67.9902 2.0576 -0.1292
v  68.1067 2.0576 -0.0907
v  68.1244 -1.2698 -0.0959
v  68.1555 -1.2698 -0.0009
v  68.0035 -1.2698 -0.0021
v  68.1486 2.0501 -0.0019
v  67.8748 -1.2698 -0.0959
v  67.8431 -1.2698 -0.0009
v  67.8500 2.0576 -0.0019
v  67.8927 2.0576 -0.0907
v  67.8748 -1.2698 0.0919
v  67.8927 2.0576 0.0850
# 17 vertices

vn -0.0017 0.0082 1.0000
vn 0.0016 0.0082 1.0000
vn 0.5189 0.0082 0.8548
vn 0.0018 0.0052 -1.0000
vn -0.0017 0.0052 -1.0000
vn 0.5466 0.0056 -0.8374
vn 0.0000 -1.0000 -0.0000
vn 0.0000 -1.0000 0.0000
vn 1.0000 0.0050 -0.0000
vn 1.0000 0.0050 0.0001
vn 0.9822 0.0047 -0.1879
vn -0.9815 0.0048 -0.1914
vn -1.0000 0.0050 0.0001
vn -1.0000 0.0050 -0.0001
vn -0.5650 0.0030 -0.8251
vn -0.5373 0.0057 0.8434
vn 0.9814 0.0050 0.1921
vn -0.9807 0.0051 0.1957
vn 0.0103 0.9999 0.0000
# 19 vertex normals

vt 0.5110 0.2500 0.0000
vt 0.5110 0.0000 0.0000
vt 0.6250 0.0000 0.0000
vt 0.6250 0.2500 0.0000
vt 0.5110 0.7500 0.0000
vt 0.5110 0.5000 0.0000
vt 0.6250 0.5000 0.0000
vt 0.6250 0.7500 0.0000
vt 0.6250 0.8764 0.0000
vt 0.5110 0.8764 0.0000
vt 0.7486 0.2500 0.0000
vt 0.7486 0.0000 0.0000
vt 0.8750 0.0000 0.0000
vt 0.8750 0.2500 0.0000
vt 0.1250 0.0000 0.0000
vt 0.2514 0.0000 0.0000
vt 0.2514 0.2500 0.0000
vt 0.1250 0.2500 0.0000
vt 0.3750 0.7500 0.0000
vt 0.3750 0.8764 0.0000
vt 0.3750 0.5000 0.0000
vt 0.3750 0.0000 0.0000
vt 0.3750 0.2500 0.0000
vt 0.5110 1.0000 0.0000
vt 0.6250 1.0000 0.0000
vt 0.3750 1.0000 0.0000
# 26 texture coords

o floralTree6
g floralTree6
usemtl lambert1
f 31/18/58 32/19/59 33/20/60 
f 33/20/60 34/21/60 31/18/58 
f 35/22/61 36/23/62 37/24/63 
f 37/24/63 38/25/63 35/22/61 
f 39/26/64 40/27/64 35/22/65 
f 35/22/65 38/25/65 39/26/64 
f 41/28/66 39/29/67 38/30/68 
f 38/30/68 37/31/68 41/28/66 
f 42/32/69 43/33/70 44/34/71 
f 44/34/71 45/35/69 42/32/69 
f 42/36/65 35/22/65 40/27/64 
f 40/27/64 43/37/64 42/36/65 
f 45/38/72 36/23/62 35/22/61 
f 35/22/61 42/36/72 45/38/72 
f 46/39/73 32/19/59 31/18/58 
f 31/18/58 47/40/73 46/39/73 
f 33/20/74 39/29/67 41/28/66 
f 41/28/66 34/21/74 33/20/74 
f 32/41/64 40/27/64 39/26/64 
f 39/26/64 33/42/64 32/41/64 
f 43/37/64 40/27/64 32/41/64 
f 32/41/64 46/43/64 43/37/64 
f 44/34/71 43/33/70 46/39/75 
f 46/39/75 47/40/75 44/34/71 
f 31/18/76 34/21/76 41/28/76 
f 31/18/76 41/28/76 37/24/76 
f 31/18/76 37/24/76 36/23/76 
f 31/18/76 36/23/76 45/35/76 
f 31/18/76 45/35/76 44/34/76 
f 31/18/76 44/34/76 47/40/76 
# 30 faces

