# 3ds Max Wavefront OBJ Exporter v0.97b - (c)2007 guruware
# File Created: 18.05.2020 21:11:44

mtllib flowerCream.mtl

#
# object flowerCream
#

v  47.3752 0.8315 -1.9820
v  46.6215 1.4967 -1.2583
v  48.8335 1.5119 -0.7936
v  45.5512 0.0222 -1.4026
v  47.3612 0.2505 -2.0319
v  48.8335 0.1512 -0.7936
v  47.9916 4.6621 -0.3030
v  47.6790 4.8377 -0.3245
v  47.8399 4.8370 -0.0534
v  45.4506 1.4465 0.7936
v  46.0327 0.2166 1.2612
v  47.4836 0.2197 2.5169
v  49.1778 0.1286 1.1494
v  48.1166 1.4183 1.7896
v  47.2991 4.5811 -0.3582
v  47.2298 4.2897 0.0018
v  47.4600 4.5804 0.3532
v  47.4107 1.0097 2.4162
v  49.1091 2.1496 -1.0597
v  46.4726 2.5082 -1.5328
v  47.1697 3.1694 -0.7065
v  47.9827 2.8758 -0.5650
v  48.3218 2.1484 1.9669
v  47.7015 2.6004 1.0615
v  46.0378 2.4574 0.4085
v  47.1502 2.9866 0.7039
v  47.0771 3.8096 -0.9031
v  48.1775 3.6878 -0.8857
v  48.0122 3.5024 0.6515
v  46.9943 3.7603 0.5173
v  47.7531 4.2480 -0.3229
# 31 vertices

vn 0.1626 0.6832 -0.7119
vn -0.4954 0.2894 -0.8190
vn -0.3773 0.0636 -0.9239
vn 0.6922 0.0344 -0.7209
vn 0.6793 0.0000 -0.7339
vn 0.6359 0.6977 -0.3301
vn -0.8202 0.4107 -0.3983
vn 0.2163 -0.9743 0.0631
vn -0.0979 -0.9952 -0.0069
vn 0.9880 0.0000 -0.1541
vn 0.8918 0.3854 0.2371
vn -0.9324 0.3099 0.1861
vn -0.9544 -0.2412 0.1760
vn 0.0128 -0.9999 -0.0096
vn -0.0858 -0.9963 -0.0025
vn 0.6681 0.0855 0.7391
vn -0.2102 0.8232 0.5274
vn -0.6862 -0.0069 0.7274
vn -0.7008 0.0247 0.7129
vn 0.6767 0.1078 0.7283
vn 0.3225 0.5823 -0.7463
vn 0.6850 0.7018 0.1957
vn -0.7096 0.7044 -0.0173
vn -0.4097 0.4828 0.7740
vn 0.1834 -0.2371 -0.9540
vn -0.5617 -0.1076 -0.8203
vn -0.5873 -0.1003 -0.8031
vn -0.8032 -0.2315 -0.5490
vn 0.0062 -0.2517 -0.9678
vn -0.7740 -0.2381 -0.5867
vn 0.2743 0.0447 0.9606
vn 0.9537 -0.2048 0.2204
vn 0.3039 0.0365 0.9520
vn 0.9833 -0.1581 0.0906
vn 0.8805 -0.0490 0.4715
vn 0.8736 -0.0446 0.4846
vn -0.9419 0.0522 -0.3317
vn -0.9916 -0.1208 -0.0451
vn -0.4770 0.2136 0.8526
vn -0.1740 0.2571 0.9506
vn 0.2676 0.5186 -0.8120
vn 0.9302 0.3398 0.1387
vn -0.9753 0.2205 -0.0155
vn -0.3982 0.2729 0.8757
vn 0.0892 0.0053 -0.9960
vn -0.6587 0.7277 0.1914
vn 0.8074 -0.2541 0.5325
# 47 vertex normals

vt 1.0000 0.5000 0.0000
vt 1.0881 0.8238 0.0000
vt 0.8381 0.6762 0.0000
vt 1.1762 0.5000 0.0000
vt 1.0881 0.1762 0.0000
vt 0.8381 0.3238 0.0000
vt 0.5881 0.8238 0.0000
vt 0.0881 0.8238 0.0000
vt 0.1762 0.5000 0.0000
vt 0.3381 0.6762 0.0000
vt 0.0881 0.1762 0.0000
vt 0.3381 0.3238 0.0000
vt 0.5881 0.1762 0.0000
vt 0.6762 0.5000 0.0000
vt 0.5000 0.5000 0.0000
# 15 texture coords

o flowerCream
g flowerCream
usemtl lambert1
f 1/1/1 2/2/1 3/3/1 
f 1/1/2 4/4/2 2/2/2 
f 1/1/3 5/5/3 4/4/3 
f 1/1/4 6/6/4 5/5/4 
f 1/1/5 3/3/5 6/6/5 
f 7/3/6 8/2/6 9/7/6 
f 2/8/7 4/9/7 10/10/7 
f 4/9/8 5/11/8 11/12/8 
f 5/5/9 6/6/9 12/13/9 
f 6/6/10 3/3/10 13/14/10 
f 3/3/11 14/7/11 13/14/11 
f 15/8/12 16/10/12 17/7/12 
f 4/9/13 11/12/13 10/10/13 
f 5/11/14 12/13/14 11/12/14 
f 6/6/15 13/14/15 12/13/15 
f 13/14/16 14/7/16 18/15/16 
f 14/7/17 10/10/17 18/15/17 
f 10/10/18 11/12/18 18/15/18 
f 11/12/19 12/13/19 18/15/19 
f 12/13/20 13/14/20 18/15/20 
f 19/3/21 20/2/21 21/2/21 
f 21/2/21 22/3/21 19/3/21 
f 23/7/22 19/3/22 22/3/22 
f 22/3/22 24/7/22 23/7/22 
f 20/8/23 25/10/23 26/10/23 
f 26/10/23 21/8/23 20/8/23 
f 25/10/24 23/7/24 24/7/24 
f 24/7/24 26/10/24 25/10/24 
f 3/3/25 2/2/26 20/2/27 
f 20/2/27 19/3/25 3/3/25 
f 27/2/28 28/3/29 22/3/29 
f 22/3/29 21/2/30 27/2/28 
f 14/7/31 3/3/32 19/3/32 
f 19/3/32 23/7/33 14/7/31 
f 28/3/34 29/7/35 24/7/36 
f 24/7/36 22/3/34 28/3/34 
f 2/8/26 10/10/37 25/10/37 
f 25/10/37 20/8/27 2/8/26 
f 30/10/38 27/8/28 21/8/30 
f 21/8/30 26/10/38 30/10/38 
f 10/10/39 14/7/31 23/7/33 
f 23/7/33 25/10/39 10/10/39 
f 29/7/35 30/10/40 26/10/40 
f 26/10/40 24/7/36 29/7/35 
f 28/3/41 27/2/41 15/2/41 
f 15/2/41 31/3/41 28/3/41 
f 29/7/42 28/3/42 31/3/42 
f 31/3/42 17/7/42 29/7/42 
f 27/8/43 30/10/43 16/10/43 
f 16/10/43 15/8/43 27/8/43 
f 30/10/44 29/7/44 17/7/44 
f 17/7/44 16/10/44 30/10/44 
f 31/3/45 15/2/45 8/2/45 
f 8/2/45 7/3/45 31/3/45 
f 15/2/46 17/7/46 9/7/46 
f 9/7/46 8/2/46 15/2/46 
f 17/7/47 31/3/47 7/3/47 
f 7/3/47 9/7/47 17/7/47 
# 58 faces

