# 3ds Max Wavefront OBJ Exporter v0.97b - (c)2007 guruware
# File Created: 18.05.2020 21:14:59

mtllib vegetation5.mtl

#
# object vegetation1
#

v  -302.9162 -63.8544 -17.1774
v  -299.3013 -70.8775 -20.2859
v  -321.4275 -67.4873 -12.0597
v  -304.3785 -61.7018 -7.1940
v  -179.3161 -89.1719 2.0568
v  -195.2130 -89.8841 -2.3437
v  -168.6728 -88.9326 -25.3669
v  -161.8342 -90.1357 -7.6618
v  -186.0451 -77.4157 -12.7999
v  -190.4017 -81.0886 -26.0618
v  -215.0720 -67.3495 -8.5457
v  -201.1993 -73.1045 -8.7192
v  -216.5433 -66.1693 0.2032
v  -206.0711 -73.3852 0.9667
v  -213.7250 -78.5444 6.4835
v  -207.6447 -85.1307 8.5578
v  -198.2178 -80.1052 7.1008
v  -203.1052 -80.9692 4.1312
v  -199.0112 -88.4623 -46.1400
v  -228.6964 -90.4571 5.5944
v  -221.2446 -63.3105 -6.4687
v  -209.9707 -75.5097 -39.0466
v  -223.0784 -65.9165 -0.6227
v  -222.2140 -86.6783 8.5879
v  -227.5058 -72.8298 2.1159
v  -207.6976 -89.6982 17.5412
v  -184.8123 -89.3236 14.7824
v  -218.6403 -89.6613 12.3899
v  -296.6732 -58.7140 -2.4659
v  -313.6126 -76.2957 -2.8617
v  -310.5774 -77.8738 2.8629
v  -302.2485 -70.9436 8.0735
v  -320.2440 -77.1037 -26.7037
v  -323.1291 -77.8000 -16.4070
v  -324.6566 -87.0405 -16.0986
v  -320.8656 -86.4908 -1.6271
v  -195.4764 -74.3210 -3.6200
v  -189.2085 -74.3086 -0.4796
v  -253.8284 -63.5479 -0.8953
v  -254.1701 -64.6411 -16.2891
v  -274.0368 -64.8011 -21.9939
v  -279.5264 -59.7950 -2.4510
v  -250.8135 -76.0151 -29.1367
v  -269.7166 -82.0614 -38.6373
v  -267.9717 -78.6331 30.3864
v  -267.0863 -79.7600 3.0287
v  -276.4727 -67.2633 8.8119
v  -285.6005 -73.9173 30.0631
v  -255.0172 -87.5960 -51.8330
v  -258.1772 -88.5592 -8.0523
v  -281.9210 -88.3830 24.3089
v  -272.0809 -88.4668 -50.9355
v  -267.7781 -88.4797 31.0348
v  -282.6060 -87.8279 34.6420
v  -236.6332 -71.1477 -26.4096
v  -238.2862 -88.2698 -56.3765
v  -245.4781 -88.0505 -7.6848
v  -258.3530 -88.7634 21.9509
v  -227.0034 -92.0317 39.8626
v  -234.1729 -85.2611 37.0905
v  -242.6360 -78.9198 28.4586
v  -240.7300 -91.2248 35.8366
v  -232.8041 -75.9258 23.7659
v  -238.0611 -75.2547 23.6508
v  -238.0760 -69.4479 1.6957
v  -237.9092 -66.9407 -2.1737
v  -241.2355 -66.6753 -14.9072
v  -283.2720 -73.1046 -22.1703
v  -281.2217 -58.6666 -12.3375
v  -284.6411 -59.9949 -2.0852
v  -294.6904 -62.3448 10.0673
v  -290.5661 -72.6077 23.9724
v  -310.4811 -87.4221 29.1249
v  -296.7061 -86.7746 23.7179
v  -302.6109 -89.8383 -52.2737
v  -290.9546 -67.5014 -19.2447
v  -292.9322 -59.4461 -13.5449
v  -325.2546 -85.4930 -36.0185
v  -291.8648 -75.1960 -27.3393
v  -303.9585 -84.5022 -37.5343
v  -228.1473 -73.0361 -30.5357
v  -222.0904 -88.7151 -50.7328
v  -241.1241 -89.7616 5.2402
v  -231.6753 -88.9509 14.1587
v  -218.0153 -91.6277 40.0281
v  -227.5319 -85.1896 36.8411
v  -225.5464 -76.4847 23.6561
v  -231.2317 -69.4424 1.8658
v  -230.2843 -68.2059 -2.3617
v  -228.1295 -64.1632 -9.1018
v  -208.0553 -90.8462 26.7922
v  -218.7504 -86.7400 26.8880
v  -221.3787 -84.4436 25.1114
v  -256.2490 -76.2032 21.4302
v  -259.4831 -90.6276 39.4036
v  -238.1326 -90.4300 25.8077
v  -238.5585 -69.2165 15.4306
v  -255.0666 -72.3233 16.3785
v  -231.1434 -92.2854 25.8769
v  -231.5017 -69.7038 15.2542
v  -213.0462 -90.3153 21.8010
v  -220.3706 -86.3447 16.5813
v  -225.6951 -73.9711 15.1077
# 103 vertices

vn -0.1774 0.7424 -0.6461
vn -0.1782 0.7755 -0.6056
vn -0.1785 0.8005 -0.5722
vn -0.0006 -1.0000 -0.0059
vn 0.0057 -0.9997 -0.0225
vn 0.0006 -0.9997 -0.0248
vn -0.0052 -0.9999 -0.0124
vn 0.2226 0.9441 -0.2433
vn 0.2286 0.9003 -0.3705
vn 0.2327 0.9543 -0.1873
vn 0.1603 0.9532 -0.2564
vn 0.2601 0.9560 0.1355
vn 0.1239 0.7557 0.6430
vn 0.2407 0.8000 0.5496
vn 0.2760 0.9527 0.1271
vn -0.0471 0.3640 0.9302
vn -0.0317 0.7245 0.6885
vn -0.0201 0.7521 0.6587
vn 0.0235 0.7061 0.7078
vn 0.0024 -0.9995 -0.0328
vn -0.0035 -0.9999 -0.0141
vn 0.2374 0.9541 -0.1827
vn 0.2404 0.9310 -0.2749
vn -0.0158 0.5584 0.8294
vn 0.1880 0.9670 0.1723
vn -0.0591 0.4402 0.8960
vn -0.0512 0.3406 0.9388
vn -0.0569 0.4300 0.9010
vn 0.0868 0.4723 0.8771
vn 0.1577 0.4894 0.8577
vn 0.0097 -0.9994 0.0326
vn 0.0150 -0.9998 0.0161
vn 0.0052 -0.9996 -0.0262
vn -0.4529 0.7393 0.4984
vn -0.5114 0.7492 0.4209
vn -0.4718 0.7432 0.4745
vn -0.0863 0.8382 0.5385
vn -0.0413 0.7812 0.6230
vn -0.0221 0.7542 0.6563
vn 0.2465 0.9268 -0.2833
vn 0.2466 0.9395 -0.2379
vn 0.2382 0.8363 -0.4938
vn -0.1785 0.8102 -0.5584
vn -0.5433 0.7517 0.3739
vn 0.1020 0.9881 -0.1147
vn 0.0857 0.9963 -0.0053
vn 0.0701 0.9932 0.0932
vn 0.0448 0.7356 0.6759
vn -0.1177 0.8732 0.4730
vn 0.2219 0.5063 0.8333
vn 0.2844 0.7540 0.5921
vn 0.2336 0.7821 0.5778
vn 0.0759 0.8494 0.5223
vn 0.3281 0.8539 0.4041
vn 0.3013 0.8946 0.3299
vn 0.2627 0.9372 0.2294
vn 0.0720 0.9899 -0.1221
vn 0.0698 0.9895 -0.1269
vn 0.0650 0.9866 -0.1497
vn 0.1079 0.9877 -0.1133
vn 0.0602 0.7619 -0.6449
vn 0.0516 0.7731 -0.6322
vn 0.0205 0.7185 -0.6952
vn -0.0946 0.6804 -0.7268
vn 0.2796 0.7567 0.5910
vn 0.3430 0.9101 0.2326
vn 0.2849 0.9150 0.2858
vn 0.0501 0.7057 0.7067
vn 0.1460 0.4293 0.8913
vn 0.0452 0.4026 0.9143
vn 0.1510 0.6905 0.7074
vn 0.1621 0.5634 0.8101
vn 0.0020 -1.0000 -0.0073
vn 0.0034 -1.0000 -0.0061
vn -0.0034 -0.9999 0.0111
vn 0.0013 -1.0000 0.0082
vn -0.0690 0.8852 -0.4601
vn -0.0586 0.8880 -0.4562
vn -0.0140 0.8840 -0.4673
vn -0.0174 0.8856 -0.4642
vn -0.0126 -0.9998 -0.0167
vn -0.0124 -0.9999 -0.0097
vn 0.0747 0.2317 0.9699
vn -0.0337 0.3452 0.9379
vn -0.0155 0.8657 -0.5003
vn -0.0221 0.8676 -0.4968
vn -0.0270 -0.9994 -0.0199
vn -0.0241 -0.9996 -0.0165
vn -0.0202 -0.9986 -0.0484
vn -0.0554 0.3802 0.9232
vn -0.1129 0.5706 0.8135
vn -0.0886 0.6343 0.7680
vn -0.2393 0.2857 0.9280
vn 0.0221 0.8169 0.5764
vn 0.0197 0.8069 0.5903
vn 0.0023 0.4631 0.8863
vn 0.0034 0.4769 0.8790
vn 0.0255 0.9969 0.0746
vn 0.0732 0.9973 -0.0047
vn -0.0012 0.8725 -0.4887
vn 0.0000 0.9010 -0.4339
vn -0.1859 0.5918 -0.7844
vn -0.1490 0.5899 -0.7937
vn 0.1565 0.9872 0.0301
vn 0.0638 0.9974 0.0328
vn 0.0594 0.9048 0.4216
vn -0.1371 0.9242 0.3563
vn -0.2056 0.7702 0.6038
vn -0.1466 0.7483 0.6469
vn -0.3503 0.8460 0.4019
vn -0.0040 -0.9999 -0.0100
vn -0.0143 -0.9998 0.0116
vn -0.0216 -0.9995 0.0212
vn -0.0062 0.8802 -0.4745
vn 0.0374 0.5677 -0.8224
vn 0.0103 0.9994 0.0342
vn -0.2100 0.9212 0.3276
vn -0.4679 0.5564 0.6866
vn -0.3727 0.8650 0.3361
vn -0.3669 0.8735 0.3200
vn -0.0024 -1.0000 -0.0071
vn -0.0468 -0.9987 0.0202
vn -0.0496 -0.9985 0.0219
vn -0.0366 0.7929 -0.6083
vn 0.0379 0.7975 -0.6021
vn 0.0136 0.7493 -0.6621
vn -0.0153 -0.9994 -0.0307
vn -0.0244 -0.9995 -0.0184
vn -0.0272 -0.9981 -0.0550
vn 0.2240 0.9029 0.3669
vn 0.1205 0.7507 0.6496
vn 0.1878 0.8098 0.5558
vn 0.0103 0.8232 0.5677
vn -0.0049 0.7792 0.6268
vn -0.0907 0.9615 0.2593
vn -0.1139 0.9495 0.2924
vn -0.0098 0.9289 -0.3702
vn -0.0099 0.9289 -0.3702
vn -0.0181 0.6795 -0.7335
vn 0.2356 0.9185 0.3176
vn 0.2725 0.8974 0.3469
vn 0.4713 0.7278 0.4982
vn -0.0364 0.6743 0.7376
vn -0.1752 0.9088 0.3786
vn -0.0143 0.9297 -0.3682
vn -0.0992 0.8609 0.4990
vn 0.0004 0.6606 0.7508
vn -0.0039 0.6883 0.7254
vn -0.0211 0.7323 0.6807
vn -0.0229 -0.9957 -0.0897
vn -0.0451 -0.9929 -0.1102
vn -0.0431 -0.9908 -0.1285
vn -0.0445 -0.9989 0.0174
vn -0.0984 0.9887 0.1130
vn -0.1581 0.9800 -0.1204
vn -0.0368 0.8034 0.5942
vn 0.0148 0.8026 0.5963
vn -0.1687 0.9498 0.2636
vn -0.0612 0.8231 0.5646
vn -0.0241 -0.9951 -0.0956
vn 0.0249 -0.9988 -0.0423
vn 0.1570 0.9522 0.2620
vn 0.4022 0.8468 0.3480
vn 0.2723 0.9488 -0.1601
vn 0.6313 0.7519 -0.1898
vn 0.4047 0.9083 -0.1060
vn 0.2569 0.9555 -0.1451
vn 0.0280 -0.9961 -0.0841
vn 0.0352 -0.9979 -0.0543
vn 0.8040 0.5576 -0.2066
vn 0.7107 0.7035 -0.0033
vn 0.4805 0.8672 0.1310
vn 0.5318 0.8169 0.2233
vn 0.4405 0.8354 -0.3287
vn 0.7772 0.5760 -0.2533
vn 0.8138 0.5299 -0.2386
vn 0.4022 0.9155 0.0057
vn 0.1848 0.9828 0.0037
vn -0.1185 0.9864 -0.1142
vn -0.1615 0.9753 -0.1504
vn -0.2268 0.9723 0.0561
vn -0.1129 0.8613 0.4955
vn 0.0081 0.6075 0.7943
vn -0.3632 0.4483 0.8168
vn -0.2740 0.5509 0.7883
vn -0.4908 0.2669 0.8294
vn -0.1669 0.9639 -0.2074
vn 0.0028 0.5058 -0.8626
vn -0.1979 0.8771 -0.4376
vn -0.8092 0.5835 -0.0686
vn -0.2463 0.8736 -0.4197
vn -0.6155 0.0231 0.7878
vn -0.0819 0.8862 -0.4559
vn -0.0412 0.8727 -0.4865
vn 0.0106 0.7237 -0.6901
# 195 vertex normals

vt 0.1250 0.2500 0.0000
vt 0.1250 0.0824 0.0000
vt 0.2494 0.0824 0.0000
vt 0.2494 0.2500 0.0000
vt 0.5513 0.8744 0.0000
vt 0.4497 0.8744 0.0000
vt 0.4497 0.7500 0.0000
vt 0.5513 0.7500 0.0000
vt 0.5513 0.6676 0.0000
vt 0.4497 0.6676 0.0000
vt 0.4497 0.5000 0.0000
vt 0.5513 0.5000 0.0000
vt 0.4497 0.3756 0.0000
vt 0.5513 0.3756 0.0000
vt 0.4497 0.2500 0.0000
vt 0.4497 0.0824 0.0000
vt 0.5513 0.0824 0.0000
vt 0.5513 0.2500 0.0000
vt 0.3750 0.7500 0.0000
vt 0.3750 0.8744 0.0000
vt 0.3750 0.5000 0.0000
vt 0.3750 0.6676 0.0000
vt 0.3750 0.3756 0.0000
vt 0.3750 0.0824 0.0000
vt 0.3750 0.2500 0.0000
vt 0.4497 1.0000 0.0000
vt 0.5513 1.0000 0.0000
vt 0.3750 1.0000 0.0000
vt 0.3750 0.0000 0.0000
vt 0.4497 0.0000 0.0000
vt 0.5513 0.0000 0.0000
vt 0.1250 0.0000 0.0000
vt 0.2494 0.0000 0.0000
vt 0.5513 0.4619 0.0000
vt 0.5513 0.6642 0.0000
# 35 texture coords

o vegetation1
g vegetation1
usemtl lambert1
f 1/1/1 2/2/2 3/3/3 
f 3/3/3 4/4/1 1/1/1 
f 5/5/4 6/6/5 7/7/6 
f 7/7/6 8/8/7 5/5/4 
f 9/9/8 10/10/9 11/11/10 
f 11/11/10 12/12/11 9/9/8 
f 11/11/12 13/13/13 14/14/14 
f 14/14/14 12/12/15 11/11/12 
f 15/15/16 16/16/17 17/17/18 
f 17/17/18 18/18/19 15/15/16 
f 19/19/20 7/7/6 6/6/5 
f 6/6/5 20/20/21 19/19/20 
f 21/21/22 11/11/10 10/10/9 
f 10/10/9 22/22/23 21/21/22 
f 23/23/24 13/13/13 11/11/12 
f 11/11/12 21/21/25 23/23/24 
f 24/24/26 16/16/17 15/15/16 
f 15/15/16 25/25/27 24/24/26 
f 25/25/28 15/15/29 13/13/13 
f 13/13/13 23/23/24 25/25/28 
f 14/14/14 13/13/13 15/15/29 
f 15/15/29 18/18/30 14/14/14 
f 26/26/31 6/6/5 5/5/4 
f 5/5/4 27/27/32 26/26/31 
f 20/20/21 6/6/5 26/26/31 
f 26/26/31 28/28/33 20/20/21 
f 29/4/34 30/3/35 31/24/36 
f 31/24/36 32/25/34 29/4/34 
f 28/29/37 26/30/38 16/16/17 
f 16/16/17 24/24/26 28/29/37 
f 17/17/18 16/16/17 26/30/38 
f 26/30/38 27/31/39 17/17/18 
f 7/7/40 10/10/9 9/9/8 
f 9/9/8 8/8/41 7/7/40 
f 22/22/23 10/10/9 7/7/40 
f 7/7/40 19/19/42 22/22/23 
f 33/32/43 34/33/43 3/3/3 
f 3/3/3 2/2/2 33/32/43 
f 31/24/36 30/3/35 35/33/44 
f 35/33/44 36/29/44 31/24/36 
f 37/34/45 12/12/46 14/14/47 
f 18/18/48 37/34/49 14/14/50 
f 5/5/51 38/35/52 17/17/53 
f 17/17/53 27/27/51 5/5/51 
f 5/5/54 8/8/54 9/9/55 
f 9/9/55 38/35/56 5/5/54 
f 17/17/53 38/35/52 37/34/49 
f 37/34/49 18/18/48 17/17/53 
f 38/35/56 9/9/55 12/12/46 
f 12/12/46 37/34/45 38/35/56 
f 39/4/57 40/1/58 41/1/59 
f 41/1/59 42/4/60 39/4/57 
f 40/1/61 43/2/62 44/2/63 
f 44/2/63 41/1/64 40/1/61 
f 45/24/65 46/25/66 47/25/67 
f 47/25/67 48/24/68 45/24/65 
f 46/25/69 39/4/70 42/4/71 
f 42/4/71 47/25/72 46/25/69 
f 49/32/73 50/33/74 51/33/75 
f 51/33/75 52/32/76 49/32/73 
f 43/2/77 49/32/78 52/32/79 
f 52/32/79 44/2/80 43/2/77 
f 50/33/74 53/29/81 54/29/82 
f 54/29/82 51/33/75 50/33/74 
f 53/29/83 45/24/65 48/24/68 
f 48/24/68 54/29/84 53/29/83 
f 55/2/85 56/32/86 49/32/78 
f 49/32/78 43/2/77 55/2/85 
f 56/32/87 57/33/88 50/33/74 
f 50/33/74 49/32/73 56/32/87 
f 57/33/88 58/29/89 53/29/81 
f 53/29/81 50/33/74 57/33/88 
f 59/29/90 60/24/91 61/24/92 
f 61/24/92 62/29/93 59/29/90 
f 60/24/91 63/25/94 64/25/95 
f 64/25/95 61/24/92 60/24/91 
f 65/25/96 66/4/97 39/4/70 
f 39/4/70 46/25/69 65/25/96 
f 66/4/98 67/1/99 40/1/58 
f 40/1/58 39/4/57 66/4/98 
f 67/1/100 55/2/101 43/2/62 
f 43/2/62 40/1/61 67/1/100 
f 41/1/64 44/2/63 68/2/102 
f 68/2/102 69/1/103 41/1/64 
f 42/4/60 41/1/59 69/1/104 
f 69/1/104 70/4/105 42/4/60 
f 47/25/72 42/4/71 70/4/106 
f 70/4/106 71/25/107 47/25/72 
f 48/24/68 47/25/67 71/25/108 
f 71/25/108 72/24/109 48/24/68 
f 54/29/84 48/24/68 72/24/109 
f 72/24/109 73/29/110 54/29/84 
f 51/33/75 54/29/82 73/29/111 
f 73/29/111 74/33/112 51/33/75 
f 52/32/76 51/33/75 74/33/112 
f 74/33/112 75/32/113 52/32/76 
f 44/2/80 52/32/79 75/32/114 
f 75/32/114 68/2/114 44/2/80 
f 69/1/103 68/2/102 76/2/115 
f 76/2/115 77/1/115 69/1/103 
f 70/4/105 69/1/104 77/1/116 
f 77/1/116 29/4/116 70/4/105 
f 71/25/107 70/4/106 29/4/117 
f 29/4/117 32/25/117 71/25/107 
f 32/25/118 31/24/119 72/24/109 
f 72/24/109 71/25/108 32/25/118 
f 73/29/110 72/24/109 31/24/119 
f 31/24/119 36/29/120 73/29/110 
f 74/33/112 73/29/111 36/29/121 
f 36/29/121 35/33/122 74/33/112 
f 75/32/113 74/33/112 35/33/122 
f 35/33/122 78/32/123 75/32/113 
f 79/2/124 80/32/124 33/32/124 
f 33/32/124 2/2/124 79/2/124 
f 81/2/125 82/32/126 56/32/86 
f 56/32/86 55/2/85 81/2/125 
f 82/32/127 83/33/128 57/33/88 
f 57/33/88 56/32/87 82/32/127 
f 83/33/128 84/29/129 58/29/89 
f 58/29/89 57/33/88 83/33/128 
f 85/29/130 86/24/131 60/24/91 
f 60/24/91 59/29/90 85/29/130 
f 86/24/131 87/25/132 63/25/94 
f 63/25/94 60/24/91 86/24/131 
f 88/25/133 89/4/134 66/4/97 
f 66/4/97 65/25/96 88/25/133 
f 89/4/135 90/1/136 67/1/99 
f 67/1/99 66/4/98 89/4/135 
f 90/1/137 81/2/138 55/2/101 
f 55/2/101 67/1/100 90/1/137 
f 22/2/139 19/32/139 82/32/126 
f 82/32/126 81/2/125 22/2/139 
f 19/32/20 20/33/21 83/33/128 
f 83/33/128 82/32/127 19/32/20 
f 20/33/21 28/29/33 84/29/129 
f 84/29/129 83/33/128 20/33/21 
f 91/29/140 92/24/141 86/24/131 
f 86/24/131 85/29/130 91/29/140 
f 86/24/131 92/24/141 93/25/142 
f 93/25/142 87/25/132 86/24/131 
f 25/25/143 23/4/143 89/4/134 
f 89/4/134 88/25/133 25/25/143 
f 23/4/144 21/1/144 90/1/136 
f 90/1/136 89/4/135 23/4/144 
f 21/1/145 22/2/145 81/2/138 
f 81/2/138 90/1/137 21/1/145 
f 94/24/146 95/29/147 62/29/148 
f 62/29/148 61/24/149 94/24/146 
f 62/29/150 95/29/151 96/29/152 
f 96/29/152 59/29/153 62/29/150 
f 97/25/154 98/25/155 64/25/156 
f 64/25/156 63/25/157 97/25/154 
f 98/25/158 94/24/146 61/24/149 
f 61/24/149 64/25/159 98/25/158 
f 96/29/152 99/29/160 85/29/161 
f 85/29/161 59/29/153 96/29/152 
f 100/25/162 97/25/154 63/25/157 
f 63/25/157 87/25/163 100/25/162 
f 101/29/164 102/24/165 92/24/166 
f 92/24/166 91/29/167 101/29/164 
f 99/29/160 101/29/168 91/29/169 
f 91/29/169 85/29/161 99/29/160 
f 102/24/165 103/25/170 93/25/171 
f 93/25/171 92/24/166 102/24/165 
f 103/25/172 100/25/162 87/25/163 
f 87/25/163 93/25/173 103/25/172 
f 58/29/89 84/29/129 99/29/160 
f 99/29/160 96/29/152 58/29/89 
f 84/29/129 28/29/33 101/29/168 
f 101/29/168 99/29/160 84/29/129 
f 28/29/174 24/24/175 102/24/165 
f 102/24/165 101/29/164 28/29/174 
f 24/24/175 25/25/176 103/25/170 
f 103/25/170 102/24/165 24/24/175 
f 25/25/177 88/25/178 100/25/162 
f 100/25/162 103/25/172 25/25/177 
f 88/25/178 65/25/179 97/25/154 
f 97/25/154 100/25/162 88/25/178 
f 65/25/179 46/25/180 98/25/155 
f 98/25/155 97/25/154 65/25/179 
f 46/25/181 45/24/182 94/24/146 
f 94/24/146 98/25/158 46/25/181 
f 45/24/182 53/29/183 95/29/147 
f 95/29/147 94/24/146 45/24/182 
f 53/29/81 58/29/89 96/29/152 
f 96/29/152 95/29/151 53/29/81 
f 30/3/184 29/4/185 4/4/185 
f 4/4/185 3/3/186 30/3/184 
f 29/4/187 77/1/187 1/1/187 
f 1/1/187 4/4/187 29/4/187 
f 77/1/188 76/2/188 2/2/188 
f 2/2/188 1/1/188 77/1/188 
f 78/32/189 35/33/190 34/33/190 
f 34/33/190 33/32/191 78/32/189 
f 35/33/192 30/3/184 3/3/186 
f 3/3/186 34/33/192 35/33/192 
f 68/2/193 75/32/193 80/32/193 
f 80/32/193 79/2/193 68/2/193 
f 75/32/194 78/32/189 33/32/191 
f 33/32/191 80/32/194 75/32/194 
f 76/2/195 68/2/195 79/2/195 
f 79/2/195 2/2/195 76/2/195 
# 202 faces

