# 3ds Max Wavefront OBJ Exporter v0.97b - (c)2007 guruware
# File Created: 18.05.2020 21:14:07

mtllib vegetation1.mtl

#
# object vegetation2
#

v  59.1419 -52.6358 14.8440
v  59.1419 -61.0378 19.9493
v  81.0773 -72.8164 22.9665
v  73.1135 -52.6358 14.8440
v  59.0444 -60.2927 -15.4652
v  59.1419 -48.9614 1.3057
v  73.1135 -48.9614 1.3057
v  79.3160 -66.4870 -20.5138
v  74.7937 -80.9839 -28.1605
v  57.8414 -78.2295 -24.9488
v  73.1135 -88.3144 -3.1088
v  59.1419 -88.3144 -15.5110
v  59.1419 -88.3144 -31.6608
v  73.1136 -88.3144 -31.6608
v  108.6064 -66.3262 -30.3331
v  116.4085 -90.7967 -30.0813
v  114.8839 -83.3753 -57.8642
v  104.5940 -69.7462 -50.5773
v  34.4949 -74.8452 -14.8440
v  34.4949 -74.8452 1.3057
v  45.0123 -57.1333 1.3057
v  50.2110 -64.5240 -14.8440
v  24.8371 -88.5683 -18.8107
v  30.0992 -90.5310 0.9837
v  42.2465 -74.8452 20.8795
v  50.2110 -58.6263 14.8440
v  46.8127 -92.1743 40.1733
v  59.2903 -89.9022 41.8586
v  59.2903 -82.3251 36.2394
v  50.2246 -84.0170 36.0617
v  66.8880 -91.9408 35.8252
v  65.1312 -82.9125 38.8040
v  118.0491 -93.4800 -27.6377
v  111.7590 -90.6153 -65.7864
v  97.2691 -74.8452 14.8440
v  90.1589 -94.0448 20.3877
v  102.5766 -93.9307 12.4692
v  79.8990 -58.6263 14.8440
v  97.7161 -67.7406 -12.2348
v  88.9241 -62.4992 -24.4556
v  81.9012 -80.2720 -61.1904
v  84.2442 -71.7756 -52.4257
v  73.8455 -89.0331 -69.3020
v  106.3013 -95.1753 -0.1059
v  96.8967 -88.3144 -31.6608
v  100.9469 -82.0935 -5.1962
v  59.1419 -88.3144 12.8342
v  35.5233 -90.9866 17.4402
v  43.3459 -91.0012 29.5278
v  59.2211 -89.1616 24.2504
v  59.2211 -73.1411 26.2602
v  45.2626 -77.7675 26.1654
v  76.3219 -93.2054 26.5372
v  71.0864 -78.8844 28.6955
# 54 vertices

vn -0.0464 0.4540 0.8898
vn -0.0856 0.4594 0.8841
vn 0.3937 0.3241 0.8602
vn 0.1407 0.4476 0.8831
vn -0.1194 0.8103 -0.5737
vn -0.1749 0.9429 -0.2836
vn 0.3104 0.9336 -0.1792
vn 0.1562 0.8798 -0.4490
vn -0.0797 0.4765 -0.8755
vn -0.0691 0.4855 -0.8715
vn -0.2087 0.4791 -0.8526
vn -0.1665 0.4712 -0.8662
vn -0.1001 -0.9919 -0.0786
vn 0.0108 -0.9992 -0.0388
vn 0.0077 -0.9994 -0.0339
vn -0.0566 -0.9982 -0.0183
vn 0.8965 0.4380 -0.0669
vn 0.9659 0.2411 -0.0949
vn 0.9586 0.2696 -0.0912
vn -0.8342 0.5492 -0.0511
vn -0.8656 0.4788 0.1468
vn -0.7989 0.5960 0.0806
vn -0.7042 0.6590 -0.2641
vn 0.0128 -0.9983 -0.0564
vn 0.0543 -0.9979 -0.0355
vn -0.2921 0.4569 -0.8402
vn -0.3005 0.4724 -0.8286
vn -0.4908 0.8444 -0.2148
vn -0.4229 0.7580 -0.4966
vn -0.3359 0.4763 0.8126
vn -0.1712 0.5448 0.8209
vn -0.0242 0.4421 0.8966
vn -0.0200 0.4389 0.8983
vn 0.2786 0.1795 0.9435
vn 0.9887 -0.0766 -0.1291
vn -0.2201 0.4899 -0.8436
vn -0.0444 0.5061 -0.8614
vn -0.3028 0.4765 -0.8254
vn -0.9001 0.4076 0.1540
vn -0.9065 0.3429 0.2463
vn 0.4874 0.1506 0.8601
vn 0.4914 0.0687 0.8682
vn 0.4359 0.4741 0.7650
vn 0.3749 0.9072 -0.1909
vn 0.2178 0.9126 -0.3459
vn 0.1046 0.6394 -0.7618
vn 0.1055 0.6414 -0.7599
vn 0.0889 0.6056 -0.7908
vn 0.1152 0.6618 -0.7408
vn -0.1511 -0.9849 -0.0848
vn -0.1136 -0.9927 -0.0399
vn -0.5061 0.8241 0.2544
vn -0.2695 0.9251 0.2675
vn 0.4652 0.8555 0.2272
vn 0.6575 0.7289 0.1908
vn 0.8407 0.5182 0.1571
vn 0.8494 0.4429 0.2871
vn 0.8328 0.4410 0.3345
vn 0.8000 0.5770 0.1646
vn 0.9380 0.3218 0.1291
vn -0.1379 -0.9873 -0.0794
vn -0.1530 -0.9860 -0.0661
vn -0.0049 -0.9981 -0.0612
vn 0.0870 -0.9957 -0.0312
vn -0.8829 0.2673 0.3861
vn -0.8473 0.3684 0.3827
vn -0.8009 0.4959 0.3356
vn 0.1114 -0.9910 -0.0749
vn -0.0371 -0.9950 -0.0927
vn 0.0040 -0.9968 -0.0794
vn 0.1326 -0.9876 -0.0835
vn -0.0573 0.6149 0.7865
vn -0.2689 0.6289 0.7295
vn -0.2120 0.7452 0.6323
vn -0.0516 0.7885 0.6128
vn -0.8084 0.2672 0.5245
vn -0.8096 0.2993 0.5049
vn -0.8085 0.3632 0.4630
vn 0.5292 0.0664 0.8459
vn 0.5666 0.0706 0.8210
vn 0.7734 0.0937 0.6270
vn 0.1258 0.5960 0.7931
vn 0.1287 0.8108 0.5710
vn -0.1854 -0.9751 -0.1219
vn -0.2482 -0.9663 -0.0676
vn 0.4356 0.0557 0.8984
vn 0.1217 0.5013 0.8567
vn -0.0457 0.5293 0.8472
vn -0.3029 0.5424 0.7836
vn 0.8183 0.4022 0.4105
vn 0.8306 0.3214 0.4547
vn 0.1856 0.9825 -0.0181
vn 0.7882 0.5125 0.3406
vn -0.0732 -0.9973 0.0076
vn -0.2209 -0.9715 -0.0858
vn -0.8721 0.4629 -0.1586
vn -0.8933 0.4053 -0.1941
vn -0.8495 0.5123 -0.1263
vn -0.2078 0.9383 -0.2764
vn -0.8215 0.5628 -0.0912
vn -0.0277 -0.9990 0.0360
# 101 vertex normals

vt 0.4502 0.2500 0.0000
vt 0.4502 0.1134 0.0000
vt 0.5679 0.1134 0.0000
vt 0.5679 0.2500 0.0000
vt 0.4502 0.5000 0.0000
vt 0.4502 0.3640 0.0000
vt 0.5679 0.3640 0.0000
vt 0.5679 0.5000 0.0000
vt 0.5679 0.6366 0.0000
vt 0.4502 0.6366 0.0000
vt 0.5679 0.8860 0.0000
vt 0.4502 0.8860 0.0000
vt 0.4502 0.7500 0.0000
vt 0.5679 0.7500 0.0000
vt 0.7390 0.2500 0.0000
vt 0.7390 0.1134 0.0000
vt 0.8750 0.1134 0.0000
vt 0.8750 0.2500 0.0000
vt 0.1250 0.1134 0.0000
vt 0.2610 0.1134 0.0000
vt 0.2610 0.2500 0.0000
vt 0.1250 0.2500 0.0000
vt 0.3750 0.7500 0.0000
vt 0.3750 0.8860 0.0000
vt 0.3750 0.5000 0.0000
vt 0.3750 0.6366 0.0000
vt 0.3750 0.3640 0.0000
vt 0.3750 0.1134 0.0000
vt 0.3750 0.2500 0.0000
vt 0.3750 0.0000 0.0000
vt 0.4502 0.0000 0.0000
vt 0.5679 0.0000 0.0000
vt 0.7390 0.0000 0.0000
vt 0.8750 0.0000 0.0000
vt 0.1250 0.0000 0.0000
vt 0.2610 0.0000 0.0000
vt 0.6250 0.1134 0.0000
vt 0.6250 0.0000 0.0000
vt 0.6250 0.2500 0.0000
vt 0.6250 0.3640 0.0000
vt 0.6250 0.5000 0.0000
vt 0.6250 0.6366 0.0000
vt 0.6250 0.7500 0.0000
vt 0.6250 0.8860 0.0000
vt 0.5679 1.0000 0.0000
vt 0.6250 1.0000 0.0000
vt 0.4502 1.0000 0.0000
vt 0.3750 1.0000 0.0000
# 48 texture coords

o vegetation2
g vegetation2
usemtl lambert1
f 1/1/1 2/2/2 3/3/3 
f 3/3/3 4/4/4 1/1/1 
f 5/5/5 6/6/6 7/7/7 
f 7/7/7 8/8/8 5/5/5 
f 8/8/9 9/9/10 10/10/11 
f 10/10/11 5/5/12 8/8/9 
f 11/11/13 12/12/14 13/13/15 
f 13/13/15 14/14/16 11/11/13 
f 15/15/17 16/16/18 17/17/19 
f 17/17/19 18/18/17 15/15/17 
f 19/19/20 20/20/21 21/21/22 
f 21/21/22 22/22/23 19/19/20 
f 23/23/24 13/13/15 12/12/14 
f 12/12/14 24/24/25 23/23/24 
f 22/25/26 5/5/12 10/10/11 
f 10/10/11 19/26/27 22/25/26 
f 21/27/28 6/6/6 5/5/5 
f 5/5/5 22/25/29 21/27/28 
f 25/28/30 2/2/2 1/1/1 
f 1/1/1 26/29/30 25/28/30 
f 27/30/31 28/31/32 29/2/33 
f 29/2/33 30/28/31 27/30/31 
f 31/32/34 32/3/34 29/2/33 
f 29/2/33 28/31/32 31/32/34 
f 16/16/18 33/33/35 34/34/35 
f 34/34/35 17/17/19 16/16/18 
f 13/13/36 10/10/11 9/9/10 
f 9/9/10 14/14/37 13/13/36 
f 19/26/27 10/10/11 13/13/36 
f 13/13/36 23/23/38 19/26/27 
f 23/35/39 24/36/40 20/20/21 
f 20/20/21 19/19/20 23/35/39 
f 35/37/41 3/3/3 36/32/42 
f 36/32/42 37/38/42 35/37/41 
f 4/4/4 3/3/3 35/37/41 
f 35/37/41 38/39/43 4/4/4 
f 8/8/8 7/7/7 39/40/44 
f 39/40/44 40/41/45 8/8/8 
f 17/42/46 41/9/47 42/8/48 
f 42/8/48 18/41/48 17/42/46 
f 43/14/49 41/9/47 17/42/46 
f 17/42/46 34/43/49 43/14/49 
f 44/44/50 11/11/13 14/14/16 
f 14/14/16 45/43/51 44/44/50 
f 26/29/52 1/1/53 6/6/6 
f 6/6/6 21/27/28 26/29/52 
f 7/7/7 6/6/6 1/1/53 
f 1/1/53 4/4/54 7/7/7 
f 39/40/44 7/7/7 4/4/54 
f 4/4/54 38/39/55 39/40/44 
f 35/37/56 46/16/57 39/15/58 
f 39/15/58 38/39/59 35/37/56 
f 37/38/60 44/33/60 46/16/57 
f 46/16/57 35/37/56 37/38/60 
f 36/45/61 11/11/13 44/44/50 
f 44/44/50 37/46/62 36/45/61 
f 47/47/63 12/12/14 11/11/13 
f 11/11/13 36/45/61 47/47/63 
f 24/24/25 12/12/14 47/47/63 
f 47/47/63 48/48/64 24/24/25 
f 20/20/21 24/36/40 48/30/65 
f 48/30/65 25/28/66 20/20/21 
f 21/21/22 20/20/21 25/28/66 
f 25/28/66 26/29/67 21/21/22 
f 49/30/68 50/31/69 28/31/70 
f 28/31/70 27/30/71 49/30/68 
f 51/2/72 52/28/73 30/28/74 
f 30/28/74 29/2/75 51/2/72 
f 52/28/76 49/30/77 27/30/78 
f 27/30/78 30/28/78 52/28/76 
f 53/32/79 54/3/80 32/3/81 
f 32/3/81 31/32/81 53/32/79 
f 54/3/82 51/2/72 29/2/75 
f 29/2/75 32/3/83 54/3/82 
f 50/31/69 53/32/84 31/32/85 
f 31/32/85 28/31/70 50/31/69 
f 48/30/64 47/31/63 50/31/69 
f 50/31/69 49/30/68 48/30/64 
f 47/31/63 36/32/61 53/32/84 
f 53/32/84 50/31/69 47/31/63 
f 36/32/86 3/3/86 54/3/80 
f 54/3/80 53/32/79 36/32/86 
f 3/3/87 2/2/88 51/2/72 
f 51/2/72 54/3/82 3/3/87 
f 2/2/88 25/28/89 52/28/73 
f 52/28/73 51/2/72 2/2/88 
f 25/28/66 48/30/65 49/30/77 
f 49/30/77 52/28/76 25/28/66 
f 39/15/58 46/16/57 16/16/90 
f 16/16/90 15/15/91 39/15/58 
f 40/18/92 39/15/92 15/15/92 
f 15/15/92 18/18/92 40/18/92 
f 46/16/57 44/33/93 33/33/93 
f 33/33/93 16/16/90 46/16/57 
f 44/33/50 45/34/51 34/34/94 
f 34/34/94 33/33/95 44/33/50 
f 9/9/96 8/8/97 42/8/97 
f 42/8/97 41/9/98 9/9/96 
f 8/8/99 40/41/99 18/41/99 
f 18/41/99 42/8/99 8/8/99 
f 14/14/100 9/9/96 41/9/98 
f 41/9/98 43/14/100 14/14/100 
f 45/43/51 14/14/16 43/14/101 
f 43/14/101 34/43/94 45/43/51 
# 104 faces

