# 3ds Max Wavefront OBJ Exporter v0.97b - (c)2007 guruware
# File Created: 18.05.2020 21:14:35

mtllib vegetation3.mtl

#
# object vegetation
#

v  -114.7234 -77.7393 -19.1247
v  -130.2425 -78.8722 -7.1693
v  -115.3597 -70.1834 -2.4659
v  -111.6187 -70.9155 -13.5449
v  7.4060 -89.1719 2.0568
v  -13.8995 -89.8842 -2.3437
v  -3.0575 -88.5324 -26.2109
v  9.3577 -88.8273 -11.0231
v  -4.7316 -68.1874 -12.7999
v  -20.8567 -69.6928 -16.3950
v  -33.7585 -67.3495 -8.5457
v  -19.8858 -61.7086 -8.7192
v  -35.2298 -66.1693 0.2032
v  -24.7576 -61.9894 0.9667
v  -32.4116 -78.5444 6.4835
v  -26.3313 -85.1307 8.5578
v  -16.9043 -80.1052 7.1008
v  -21.7917 -69.5734 4.1312
v  -35.1832 -89.2401 -22.7326
v  -47.3829 -90.4571 5.5944
v  -39.9311 -71.9312 -6.4687
v  -34.1226 -79.1279 -17.4131
v  -41.7649 -74.7519 -0.6227
v  -40.9005 -86.6783 8.5879
v  -46.1923 -80.7300 2.1159
v  -26.3841 -89.6982 17.5412
v  -3.4988 -89.3236 14.7824
v  -37.3268 -89.6613 12.3899
v  -133.1402 -83.1439 3.2473
v  -114.0810 -78.4316 8.5948
v  -145.4149 -85.4930 -27.9490
v  -151.6601 -87.0405 -16.0986
v  -147.8691 -86.4908 -1.6271
v  -14.1629 -62.9252 -3.6200
v  -7.8950 -74.3086 -0.4796
v  -72.5150 -74.5587 -0.8953
v  -70.1008 -74.4531 -8.5641
v  -85.8644 -79.9224 -10.8895
v  -88.8980 -78.1719 -1.6286
v  -69.5000 -80.3516 -13.3148
v  -88.4032 -81.5949 -16.7220
v  -73.2545 -84.7777 13.4991
v  -67.1206 -77.7428 3.0287
v  -86.9119 -83.1105 7.6141
v  -97.6534 -85.0663 19.1889
v  -73.7038 -87.5960 -25.0266
v  -76.8637 -88.5592 -8.0523
v  -100.6075 -88.3830 7.4216
v  -90.7675 -86.0482 -24.1291
v  -69.7421 -88.4797 14.1474
v  -101.2926 -87.8279 17.7546
v  -55.3198 -79.0603 -10.5877
v  -56.9727 -88.2699 -23.9127
v  -66.5266 -89.4135 1.8752
v  -66.9256 -88.7634 14.1542
v  -69.6088 -92.0317 64.2371
v  -75.6527 -85.2611 59.4877
v  -81.2181 -86.8200 48.7564
v  -81.5555 -91.2248 56.3692
v  -70.4433 -83.8260 47.1475
v  -75.4363 -83.1549 45.4985
v  -56.7625 -77.3482 1.6957
v  -56.5957 -74.4664 -2.1737
v  -59.9220 -75.3952 -8.1930
v  -102.7556 -79.0724 -18.0322
v  -99.9082 -72.7782 -12.3375
v  -103.3276 -71.4643 -2.0852
v  -101.7272 -79.1307 8.1489
v  -112.5157 -83.5205 19.4514
v  -116.2019 -87.4221 17.7448
v  -115.3927 -86.7746 6.8305
v  -124.0548 -85.0843 -36.1876
v  -46.8338 -80.9487 -14.7138
v  -50.1997 -88.7151 -23.3711
v  -59.8106 -89.7616 5.2402
v  -60.0380 -88.9509 14.1587
v  -61.0629 -91.6277 67.0265
v  -61.2861 -85.1896 61.1933
v  -53.6209 -84.3849 31.5876
v  -49.9183 -77.3426 1.8658
v  -48.9708 -74.4134 -2.3617
v  -46.8161 -76.0201 -9.1018
v  -47.6646 -90.8462 57.2861
v  -48.4559 -86.7400 48.4695
v  -45.1891 -84.4437 29.8706
v  -72.2122 -84.1034 21.4302
v  -85.9169 -90.6277 41.1033
v  -76.1361 -90.4300 47.5400
v  -57.2451 -77.1167 15.4306
v  -65.5343 -80.2235 16.3785
v  -69.4732 -92.2854 49.6522
v  -50.1882 -77.6040 15.2542
v  -31.7327 -90.3153 21.8010
v  -39.0571 -86.3447 16.5813
v  -44.3817 -81.8713 15.1077
# 95 vertices

vn -0.2261 0.9271 -0.2988
vn -0.1928 0.9805 0.0378
vn -0.2984 0.9533 0.0467
vn -0.2799 0.8668 -0.4127
vn 0.0165 -0.9997 -0.0198
vn 0.0096 -0.9997 -0.0224
vn 0.0120 -0.9992 -0.0394
vn 0.0178 -0.9992 -0.0346
vn 0.2500 0.5692 -0.7833
vn -0.0253 0.5212 -0.8530
vn -0.2239 0.6097 -0.7603
vn -0.0463 0.6976 -0.7150
vn -0.2757 0.9471 -0.1643
vn -0.2801 0.7854 0.5520
vn -0.1937 0.8598 0.4724
vn -0.2098 0.9612 -0.1788
vn -0.0748 0.3860 0.9195
vn -0.0352 0.6040 0.7962
vn -0.0187 0.6577 0.7530
vn -0.0057 0.2765 0.9610
vn 0.0015 -0.9989 -0.0460
vn -0.0113 -0.9999 -0.0107
vn -0.2558 0.5906 -0.7653
vn -0.1230 0.4512 -0.8839
vn -0.3122 0.5619 0.7660
vn -0.4946 0.8624 -0.1078
vn -0.1047 0.5231 0.8458
vn -0.1062 0.4340 0.8947
vn -0.2523 0.4590 0.8518
vn -0.1556 0.4154 0.8962
vn -0.0935 0.3850 0.9182
vn 0.0093 -0.9994 0.0327
vn 0.0131 -0.9997 0.0182
vn -0.0056 -0.9992 -0.0395
vn -0.2261 0.9338 0.2772
vn -0.2581 0.8497 0.4598
vn -0.0863 0.8382 0.5385
vn -0.0413 0.7812 0.6230
vn -0.0221 0.7542 0.6563
vn 0.1958 0.5299 -0.8252
vn 0.2697 0.5579 -0.7849
vn -0.0758 0.3979 -0.9143
vn -0.1409 0.9821 -0.1249
vn -0.1624 0.9862 -0.0319
vn -0.2015 0.9667 0.1578
vn 0.3765 0.8932 0.2458
vn 0.2301 0.9575 0.1738
vn 0.0701 0.9932 0.0932
vn 0.2362 0.4736 0.8484
vn 0.2395 0.4660 0.8518
vn 0.2219 0.5063 0.8333
vn 0.2238 0.7511 0.6211
vn 0.2309 0.6898 0.6862
vn 0.2367 0.6140 0.7530
vn 0.4887 0.7855 0.3798
vn 0.4697 0.8098 0.3515
vn 0.4660 0.8144 0.3459
vn -0.1049 0.9829 -0.1513
vn -0.0576 0.9915 -0.1167
vn -0.0002 0.9932 -0.1161
vn 0.1262 0.9903 -0.0585
vn -0.0020 0.7518 -0.6594
vn 0.0009 0.7454 -0.6666
vn 0.1165 0.7623 -0.6367
vn 0.0248 0.7991 -0.6006
vn 0.0170 0.7376 0.6751
vn -0.0207 0.9355 0.3526
vn -0.0029 0.9318 0.3630
vn 0.0964 0.6858 0.7213
vn -0.0129 0.8072 0.5901
vn -0.0686 0.8113 0.5806
vn 0.0804 0.8443 0.5298
vn 0.0292 0.8362 0.5476
vn -0.0294 -0.9969 -0.0728
vn -0.0242 -0.9989 -0.0411
vn -0.0195 -0.9993 -0.0328
vn -0.0309 -0.9971 -0.0699
vn 0.0276 0.8342 -0.5508
vn 0.0260 0.8400 -0.5420
vn 0.0905 0.8387 -0.5371
vn 0.0625 0.8422 -0.5356
vn -0.0072 -0.9999 -0.0077
vn -0.0136 -0.9998 0.0124
vn 0.0894 -0.1234 0.9883
vn 0.0115 -0.3496 0.9368
vn 0.0141 0.8171 -0.5763
vn 0.0177 0.8202 -0.5718
vn -0.0209 -0.9982 -0.0568
vn -0.0287 -0.9992 -0.0283
vn -0.0461 -0.9976 -0.0523
vn -0.1371 0.5597 0.8173
vn -0.1603 0.9111 0.3797
vn -0.3118 0.8258 0.4699
vn -0.4615 0.4286 0.7768
vn 0.0086 0.9971 0.0750
vn -0.1373 0.9801 0.1437
vn 0.0160 0.8062 0.5914
vn 0.0147 0.8067 0.5908
vn 0.0115 0.9880 -0.1538
vn 0.0151 0.9958 -0.0903
vn 0.0376 0.6315 -0.7744
vn -0.0331 0.6472 -0.7616
vn 0.1162 0.6537 -0.7478
vn 0.1430 0.6943 -0.7053
vn 0.2003 0.9796 -0.0133
vn 0.1399 0.9897 -0.0311
vn 0.0908 0.8268 0.5551
vn 0.1164 0.8359 0.5364
vn 0.0627 0.9031 0.4248
vn -0.0860 0.7266 0.6817
vn -0.2636 0.5223 0.8110
vn -0.0139 -0.9999 -0.0047
vn -0.0117 -0.9991 -0.0415
vn 0.0001 -0.9983 -0.0578
vn -0.0173 0.9227 -0.3851
vn 0.0917 0.8542 -0.5117
vn 0.0868 0.6070 -0.7900
vn 0.0740 0.9960 -0.0501
vn 0.0366 0.8048 0.5924
vn -0.1001 0.8905 0.4438
vn -0.2566 0.6328 0.7306
vn -0.2753 0.5872 0.7612
vn -0.0044 -1.0000 -0.0029
vn 0.0098 -0.9989 -0.0451
vn 0.0148 -0.9981 -0.0601
vn -0.0294 0.9284 -0.3703
vn -0.0363 0.6859 -0.7268
vn -0.0272 0.7285 -0.6845
vn -0.0232 -0.9982 -0.0558
vn -0.0233 -0.9997 -0.0060
vn -0.0231 -0.9979 -0.0605
vn 0.1119 0.7219 0.6829
vn 0.0704 0.9517 0.2988
vn 0.0618 0.9943 0.0875
vn 0.0134 0.7221 0.6916
vn 0.0179 0.6914 0.7223
vn -0.0360 0.9899 -0.1374
vn -0.0791 0.9937 -0.0799
vn -0.1047 0.7287 -0.6768
vn -0.1051 0.7293 -0.6761
vn -0.0476 0.6285 -0.7764
vn 0.2662 0.7980 0.5407
vn 0.1258 0.9698 0.2088
vn 0.0766 0.9925 0.0956
vn 0.0309 0.5944 0.8036
vn -0.1459 0.9892 0.0109
vn -0.1266 0.7600 -0.6375
vn -0.3878 0.9210 -0.0374
vn -0.4632 0.8717 -0.1598
vn -0.4226 0.9057 -0.0330
vn -0.3992 0.9168 -0.0082
vn 0.0117 -0.9981 -0.0606
vn -0.0168 -0.9974 -0.0705
vn -0.0392 -0.9992 -0.0055
vn 0.0121 -0.9970 -0.0761
vn 0.0417 0.9761 0.2133
vn -0.1000 0.9911 0.0873
vn -0.1019 0.9910 0.0863
vn -0.0478 0.9881 0.1462
vn -0.3428 0.9382 0.0477
vn -0.3522 0.9278 -0.1228
vn -0.0147 -0.9991 -0.0408
vn 0.0286 -0.9995 0.0115
vn 0.1693 0.9580 0.2313
vn 0.1551 0.9245 0.3482
vn 0.3084 0.9314 0.1933
vn 0.3636 0.9238 0.1195
vn 0.3026 0.9277 0.2185
vn 0.2992 0.9289 0.2183
vn 0.0007 -0.9981 -0.0610
vn 0.0339 -0.9994 0.0112
vn 0.4120 0.8840 0.2210
vn 0.4663 0.8829 0.0553
vn 0.2575 0.9407 0.2207
vn 0.1777 0.9293 0.3238
vn 0.4405 0.8354 -0.3287
vn 0.4997 0.8506 -0.1638
vn 0.5098 0.8505 -0.1295
vn 0.4022 0.9155 0.0057
vn 0.1848 0.9828 0.0037
vn -0.0439 0.9978 0.0499
vn -0.0959 0.9914 0.0895
vn -0.3318 0.9307 0.1539
vn -0.5523 0.8279 -0.0980
vn -0.7709 0.2072 -0.6023
# 185 vertex normals

vt 0.1250 0.0824 0.0000
vt 0.2494 0.0824 0.0000
vt 0.2494 0.2500 0.0000
vt 0.1250 0.2500 0.0000
vt 0.5513 0.8744 0.0000
vt 0.4497 0.8744 0.0000
vt 0.4497 0.7500 0.0000
vt 0.5513 0.7500 0.0000
vt 0.5513 0.6676 0.0000
vt 0.4497 0.6676 0.0000
vt 0.4497 0.5000 0.0000
vt 0.5513 0.5000 0.0000
vt 0.4497 0.3756 0.0000
vt 0.5513 0.3756 0.0000
vt 0.4497 0.2500 0.0000
vt 0.4497 0.0824 0.0000
vt 0.5513 0.0824 0.0000
vt 0.5513 0.2500 0.0000
vt 0.3750 0.7500 0.0000
vt 0.3750 0.8744 0.0000
vt 0.3750 0.5000 0.0000
vt 0.3750 0.6676 0.0000
vt 0.3750 0.3756 0.0000
vt 0.3750 0.0824 0.0000
vt 0.3750 0.2500 0.0000
vt 0.4497 1.0000 0.0000
vt 0.5513 1.0000 0.0000
vt 0.3750 1.0000 0.0000
vt 0.3750 0.0000 0.0000
vt 0.4497 0.0000 0.0000
vt 0.5513 0.0000 0.0000
vt 0.1250 0.0000 0.0000
vt 0.2494 0.0000 0.0000
vt 0.5513 0.4619 0.0000
vt 0.5513 0.6642 0.0000
# 35 texture coords

o vegetation
g vegetation
usemtl lambert1
f 1/1/1 2/2/2 3/3/3 
f 3/3/3 4/4/4 1/1/1 
f 5/5/5 6/6/6 7/7/7 
f 7/7/7 8/8/8 5/5/5 
f 9/9/9 10/10/10 11/11/11 
f 11/11/11 12/12/12 9/9/9 
f 11/11/13 13/13/14 14/14/15 
f 14/14/15 12/12/16 11/11/13 
f 15/15/17 16/16/18 17/17/19 
f 17/17/19 18/18/20 15/15/17 
f 19/19/21 7/7/7 6/6/6 
f 6/6/6 20/20/22 19/19/21 
f 21/21/23 11/11/11 10/10/10 
f 10/10/10 22/22/24 21/21/23 
f 23/23/25 13/13/14 11/11/13 
f 11/11/13 21/21/26 23/23/25 
f 24/24/27 16/16/18 15/15/17 
f 15/15/17 25/25/28 24/24/27 
f 25/25/29 15/15/30 13/13/14 
f 13/13/14 23/23/25 25/25/29 
f 14/14/15 13/13/14 15/15/30 
f 15/15/30 18/18/31 14/14/15 
f 26/26/32 6/6/6 5/5/5 
f 5/5/5 27/27/33 26/26/32 
f 20/20/22 6/6/6 26/26/32 
f 26/26/32 28/28/34 20/20/22 
f 3/3/3 2/2/2 29/24/35 
f 29/24/35 30/25/36 3/3/3 
f 28/29/37 26/30/38 16/16/18 
f 16/16/18 24/24/27 28/29/37 
f 17/17/19 16/16/18 26/30/38 
f 26/30/38 27/31/39 17/17/19 
f 7/7/40 10/10/10 9/9/9 
f 9/9/9 8/8/41 7/7/40 
f 22/22/24 10/10/10 7/7/40 
f 7/7/40 19/19/42 22/22/24 
f 31/32/43 32/33/44 2/2/2 
f 2/2/2 1/1/1 31/32/43 
f 29/24/35 2/2/2 32/33/44 
f 32/33/44 33/29/45 29/24/35 
f 34/34/46 12/12/47 14/14/48 
f 18/18/49 34/34/50 14/14/51 
f 5/5/52 35/35/53 17/17/54 
f 17/17/54 27/27/52 5/5/52 
f 5/5/55 8/8/55 9/9/56 
f 9/9/56 35/35/57 5/5/55 
f 17/17/54 35/35/53 34/34/50 
f 34/34/50 18/18/49 17/17/54 
f 35/35/57 9/9/56 12/12/47 
f 12/12/47 34/34/46 35/35/57 
f 36/3/58 37/4/59 38/4/60 
f 38/4/60 39/3/61 36/3/58 
f 37/4/62 40/1/63 41/1/64 
f 41/1/64 38/4/65 37/4/62 
f 42/24/66 43/25/67 44/25/68 
f 44/25/68 45/24/69 42/24/66 
f 43/25/70 36/3/71 39/3/72 
f 39/3/72 44/25/73 43/25/70 
f 46/32/74 47/33/75 48/33/76 
f 48/33/76 49/32/77 46/32/74 
f 40/1/78 46/32/79 49/32/80 
f 49/32/80 41/1/81 40/1/78 
f 47/33/75 50/29/82 51/29/83 
f 51/29/83 48/33/76 47/33/75 
f 50/29/84 42/24/66 45/24/69 
f 45/24/69 51/29/85 50/29/84 
f 52/1/86 53/32/87 46/32/79 
f 46/32/79 40/1/78 52/1/86 
f 53/32/88 54/33/89 47/33/75 
f 47/33/75 46/32/74 53/32/88 
f 54/33/89 55/29/90 50/29/82 
f 50/29/82 47/33/75 54/33/89 
f 56/29/91 57/24/92 58/24/93 
f 58/24/93 59/29/94 56/29/91 
f 57/24/92 60/25/95 61/25/96 
f 61/25/96 58/24/93 57/24/92 
f 62/25/97 63/3/98 36/3/71 
f 36/3/71 43/25/70 62/25/97 
f 63/3/99 64/4/100 37/4/59 
f 37/4/59 36/3/58 63/3/99 
f 64/4/101 52/1/102 40/1/63 
f 40/1/63 37/4/62 64/4/101 
f 38/4/65 41/1/64 65/1/103 
f 65/1/103 66/4/104 38/4/65 
f 39/3/61 38/4/60 66/4/105 
f 66/4/105 67/3/106 39/3/61 
f 44/25/73 39/3/72 67/3/107 
f 67/3/107 68/25/108 44/25/73 
f 45/24/69 44/25/68 68/25/109 
f 68/25/109 69/24/110 45/24/69 
f 51/29/85 45/24/69 69/24/110 
f 69/24/110 70/29/111 51/29/85 
f 48/33/76 51/29/83 70/29/112 
f 70/29/112 71/33/113 48/33/76 
f 49/32/77 48/33/76 71/33/113 
f 71/33/113 72/32/114 49/32/77 
f 41/1/81 49/32/80 72/32/115 
f 72/32/115 65/1/116 41/1/81 
f 66/4/104 65/1/103 1/1/117 
f 1/1/117 4/4/117 66/4/104 
f 67/3/106 66/4/105 4/4/118 
f 4/4/118 3/3/118 67/3/106 
f 68/25/108 67/3/107 3/3/119 
f 3/3/119 30/25/119 68/25/108 
f 30/25/120 29/24/121 69/24/110 
f 69/24/110 68/25/109 30/25/120 
f 70/29/111 69/24/110 29/24/121 
f 29/24/121 33/29/122 70/29/111 
f 71/33/113 70/29/112 33/29/123 
f 33/29/123 32/33/124 71/33/113 
f 72/32/114 71/33/113 32/33/124 
f 32/33/124 31/32/125 72/32/114 
f 65/1/116 72/32/115 31/32/126 
f 31/32/126 1/1/126 65/1/116 
f 73/1/127 74/32/128 53/32/87 
f 53/32/87 52/1/86 73/1/127 
f 74/32/129 75/33/130 54/33/89 
f 54/33/89 53/32/88 74/32/129 
f 75/33/130 76/29/131 55/29/90 
f 55/29/90 54/33/89 75/33/130 
f 77/29/132 78/24/133 57/24/92 
f 57/24/92 56/29/91 77/29/132 
f 78/24/133 79/25/134 60/25/95 
f 60/25/95 57/24/92 78/24/133 
f 80/25/135 81/3/136 63/3/98 
f 63/3/98 62/25/97 80/25/135 
f 81/3/137 82/4/138 64/4/100 
f 64/4/100 63/3/99 81/3/137 
f 82/4/139 73/1/140 52/1/102 
f 52/1/102 64/4/101 82/4/139 
f 22/1/141 19/32/141 74/32/128 
f 74/32/128 73/1/127 22/1/141 
f 19/32/21 20/33/22 75/33/130 
f 75/33/130 74/32/129 19/32/21 
f 20/33/22 28/29/34 76/29/131 
f 76/29/131 75/33/130 20/33/22 
f 83/29/142 84/24/143 78/24/133 
f 78/24/133 77/29/132 83/29/142 
f 84/24/143 85/25/144 79/25/134 
f 79/25/134 78/24/133 84/24/143 
f 25/25/145 23/3/145 81/3/136 
f 81/3/136 80/25/135 25/25/145 
f 23/3/146 21/4/146 82/4/138 
f 82/4/138 81/3/137 23/3/146 
f 21/4/147 22/1/147 73/1/140 
f 73/1/140 82/4/139 21/4/147 
f 58/24/148 86/24/149 87/29/150 
f 87/29/150 59/29/151 58/24/148 
f 87/29/152 88/29/153 56/29/154 
f 56/29/154 59/29/155 87/29/152 
f 89/25/156 90/25/157 61/25/158 
f 61/25/158 60/25/159 89/25/156 
f 90/25/160 86/24/149 58/24/148 
f 58/24/148 61/25/161 90/25/160 
f 88/29/153 91/29/162 77/29/163 
f 77/29/163 56/29/154 88/29/153 
f 92/25/164 89/25/156 60/25/159 
f 60/25/159 79/25/165 92/25/164 
f 93/29/166 94/24/167 84/24/168 
f 84/24/168 83/29/169 93/29/166 
f 91/29/162 93/29/170 83/29/171 
f 83/29/171 77/29/163 91/29/162 
f 85/25/172 84/24/168 94/24/167 
f 94/24/167 95/25/173 85/25/172 
f 95/25/174 92/25/164 79/25/165 
f 79/25/165 85/25/175 95/25/174 
f 55/29/90 76/29/131 91/29/162 
f 91/29/162 88/29/153 55/29/90 
f 76/29/131 28/29/34 93/29/170 
f 93/29/170 91/29/162 76/29/131 
f 28/29/176 24/24/177 94/24/167 
f 94/24/167 93/29/166 28/29/176 
f 24/24/177 25/25/178 95/25/173 
f 95/25/173 94/24/167 24/24/177 
f 25/25/179 80/25/180 92/25/164 
f 92/25/164 95/25/174 25/25/179 
f 80/25/180 62/25/181 89/25/156 
f 89/25/156 92/25/164 80/25/180 
f 62/25/181 43/25/182 90/25/157 
f 90/25/157 89/25/156 62/25/181 
f 43/25/183 42/24/184 86/24/149 
f 86/24/149 90/25/160 43/25/183 
f 42/24/184 50/29/185 87/29/150 
f 87/29/150 86/24/149 42/24/184 
f 50/29/82 55/29/90 88/29/153 
f 88/29/153 87/29/152 50/29/82 
# 186 faces

